<svg width="303" height="63" viewBox="0 0 303 63" fill="none" xmlns="http://www.w3.org/2000/svg">
<path d="M21.875 2.125C22.1667 2.1875 22.3333 2.3125 22.375 2.5C22.4375 2.66667 22.4688 2.86458 22.4688 3.09375V3.53125C22.4688 3.98958 22.4479 4.40625 22.4062 4.78125C22.3854 5.13542 22.2812 5.55208 22.0938 6.03125C22.0938 6.13542 22.0417 6.22917 21.9375 6.3125C21.8333 6.375 21.7083 6.42708 21.5625 6.46875C21.4375 6.51042 21.3125 6.55208 21.1875 6.59375C21.0833 6.61458 21.0104 6.625 20.9688 6.625C20.2396 6.75 19.5521 6.83333 18.9062 6.875C18.2604 6.91667 17.5938 6.9375 16.9062 6.9375H15.2812C15.0104 7.125 14.7292 7.21875 14.4375 7.21875H14.0938C13.6354 7.21875 13.1979 7.16667 12.7812 7.0625C12.3646 6.9375 11.9375 6.875 11.5 6.875C11.3958 6.875 11.25 6.875 11.0625 6.875C10.875 6.875 10.75 6.89583 10.6875 6.9375C10.5208 6.9375 10.2917 6.95833 10 7C9.70833 7.02083 9.41667 7.05208 9.125 7.09375C8.85417 7.11458 8.60417 7.14583 8.375 7.1875C8.16667 7.20833 8.04167 7.21875 8 7.21875C7.95833 7.21875 7.875 7.27083 7.75 7.375C7.64583 7.47917 7.53125 7.59375 7.40625 7.71875C7.28125 7.84375 7.15625 7.97917 7.03125 8.125C6.92708 8.25 6.85417 8.34375 6.8125 8.40625C6.66667 8.67708 6.57292 9.08333 6.53125 9.625C6.48958 10.1458 6.46875 10.6354 6.46875 11.0938V11.8125C6.46875 12.7917 6.5 13.8646 6.5625 15.0312C6.625 16.1771 6.70833 17.1771 6.8125 18.0312C6.8125 18.0938 6.83333 18.1979 6.875 18.3438C6.9375 18.4896 7 18.6562 7.0625 18.8438C7.14583 19.0104 7.21875 19.1667 7.28125 19.3125C7.34375 19.4375 7.38542 19.5104 7.40625 19.5312V20.0312C7.40625 20.2604 7.375 20.4583 7.3125 20.625C7.27083 20.7708 7.10417 20.9167 6.8125 21.0625V23.1562C6.8125 23.1979 6.79167 23.2812 6.75 23.4062C6.72917 23.5104 6.6875 23.6354 6.625 23.7812C6.58333 23.9062 6.54167 24.0312 6.5 24.1562C6.47917 24.2604 6.46875 24.3229 6.46875 24.3438C6.46875 24.4062 6.46875 24.5208 6.46875 24.6875C6.48958 24.8333 6.5 25.0104 6.5 25.2188C6.5 25.4062 6.5 25.6146 6.5 25.8438C6.52083 26.0729 6.53125 26.2917 6.53125 26.5C6.53125 26.7292 6.53125 26.9271 6.53125 27.0938C6.53125 27.2396 6.51042 27.3333 6.46875 27.375C6.46875 27.4167 6.4375 27.5 6.375 27.625C6.33333 27.7292 6.28125 27.8542 6.21875 28C6.15625 28.125 6.08333 28.25 6 28.375C5.9375 28.4792 5.89583 28.5417 5.875 28.5625V28.7188V28.875C5.875 28.8958 5.88542 28.9688 5.90625 29.0938C5.94792 29.1979 5.98958 29.3229 6.03125 29.4688C6.09375 29.6146 6.13542 29.75 6.15625 29.875C6.19792 30 6.21875 30.0729 6.21875 30.0938V31.375V31.875C6.21875 31.9167 6.22917 32 6.25 32.125C6.27083 32.25 6.29167 32.3854 6.3125 32.5312C6.35417 32.6562 6.38542 32.7812 6.40625 32.9062C6.44792 33.0104 6.46875 33.0729 6.46875 33.0938V33.375V33.6875C6.46875 33.7292 6.44792 33.8125 6.40625 33.9375C6.38542 34.0417 6.35417 34.1667 6.3125 34.3125C6.29167 34.4375 6.27083 34.5625 6.25 34.6875C6.22917 34.7917 6.21875 34.8542 6.21875 34.875V35.0625V35.1562C6.21875 35.2396 6.22917 35.4167 6.25 35.6875C6.27083 35.9583 6.29167 36.25 6.3125 36.5625C6.35417 36.8542 6.38542 37.1354 6.40625 37.4062C6.44792 37.6562 6.46875 37.8229 6.46875 37.9062C6.46875 37.9479 6.46875 38.1146 6.46875 38.4062C6.48958 38.6771 6.51042 38.9896 6.53125 39.3438C6.55208 39.6771 6.5625 40.0208 6.5625 40.375C6.58333 40.7292 6.59375 41.0104 6.59375 41.2188C6.59375 41.3438 6.58333 41.5625 6.5625 41.875C6.5625 42.1875 6.55208 42.5208 6.53125 42.875C6.51042 43.2083 6.48958 43.5312 6.46875 43.8438C6.46875 44.1562 6.46875 44.375 6.46875 44.5C6.44792 44.6042 6.39583 44.8125 6.3125 45.125C6.25 45.4167 6.21875 45.6042 6.21875 45.6875C6.21875 45.7917 6.20833 45.9896 6.1875 46.2812C6.16667 46.5729 6.15625 46.8854 6.15625 47.2188C6.15625 47.5521 6.16667 47.8542 6.1875 48.125C6.20833 48.4167 6.21875 48.6146 6.21875 48.7188C6.11458 48.8229 5.98958 48.9688 5.84375 49.1562C5.69792 49.3646 5.625 49.5104 5.625 49.5938C5.625 49.6771 5.66667 49.8438 5.75 50.0938C5.83333 50.3438 5.875 50.4792 5.875 50.5C5.97917 51.0208 6.03125 51.5417 6.03125 52.0625C6.03125 52.6042 6.17708 53.1146 6.46875 53.5938C6.51042 53.6354 6.58333 53.7083 6.6875 53.8125C6.79167 53.9167 6.88542 54.0312 6.96875 54.1562C7.07292 54.2812 7.16667 54.3958 7.25 54.5C7.33333 54.625 7.38542 54.6979 7.40625 54.7188C7.42708 54.7812 7.46875 54.8958 7.53125 55.0625C7.59375 55.25 7.65625 55.4479 7.71875 55.6562C7.78125 55.8646 7.83333 56.0521 7.875 56.2188C7.9375 56.3854 7.97917 56.4792 8 56.5C8.08333 56.6458 8.22917 56.7917 8.4375 56.9375C8.66667 57.0833 8.82292 57.1771 8.90625 57.2188C9.05208 57.2188 9.3125 57.2292 9.6875 57.25C10.0625 57.2917 10.4479 57.3229 10.8438 57.3438C11.2604 57.3854 11.6562 57.4167 12.0312 57.4375C12.4062 57.4792 12.6667 57.5 12.8125 57.5H13.2812H13.7812C13.8229 57.5 13.9583 57.4792 14.1875 57.4375C14.4167 57.4167 14.6667 57.3854 14.9375 57.3438C15.2083 57.3229 15.4583 57.2917 15.6875 57.25C15.9167 57.2292 16.0521 57.2188 16.0938 57.2188C16.1354 57.1771 16.2083 57.1562 16.3125 57.1562C16.4375 57.1562 16.5625 57.1562 16.6875 57.1562C16.9792 57.1562 17.2917 57.1667 17.625 57.1875C17.9583 57.2083 18.1562 57.2188 18.2188 57.2188C18.3021 57.1771 18.4583 57.1146 18.6875 57.0312C18.9375 56.9479 19.1042 56.9062 19.1875 56.9062H19.875H20.6875C20.7292 56.9062 20.8646 56.9479 21.0938 57.0312C21.3438 57.1146 21.4792 57.1771 21.5 57.2188C21.5625 57.2188 21.6875 57.2083 21.875 57.1875C22.0833 57.1667 22.2708 57.1562 22.4375 57.1562C22.6458 57.1562 22.7708 57.1771 22.8125 57.2188C23.1875 57.2604 23.4896 57.3854 23.7188 57.5938C23.9479 57.8229 24.125 58.0833 24.25 58.375C24.375 58.6875 24.4583 59.0208 24.5 59.375C24.5625 59.7292 24.5938 60.0521 24.5938 60.3438V60.5312C24.0312 61.2188 23.3333 61.6354 22.5 61.7812C21.6667 61.9479 20.8125 62.0312 19.9375 62.0312C19.0208 62.0312 18.1146 61.9896 17.2188 61.9062C16.3229 61.8438 15.4271 61.7604 14.5312 61.6562C13.6354 61.5729 12.7396 61.4896 11.8438 61.4062C10.9688 61.3438 10.0833 61.3125 9.1875 61.3125H7.0625C7.0625 61.3125 7 61.3333 6.875 61.375C6.77083 61.4167 6.64583 61.4583 6.5 61.5C6.375 61.5625 6.25 61.6146 6.125 61.6562C6 61.6979 5.91667 61.7188 5.875 61.7188C5.45833 61.7188 5 61.6562 4.5 61.5312C4.02083 61.4271 3.5625 61.2604 3.125 61.0312C2.70833 60.8021 2.35417 60.5 2.0625 60.125C1.79167 59.7708 1.65625 59.3438 1.65625 58.8438C1.65625 57.7604 1.70833 56.6771 1.8125 55.5938C1.9375 54.5104 2 53.4167 2 52.3125C2 51.3542 1.90625 50.3958 1.71875 49.4375C1.55208 48.5 1.44792 47.5625 1.40625 46.625V45.75V43.5938C1.38542 43.5104 1.36458 43.2812 1.34375 42.9062C1.32292 42.5104 1.29167 42.0938 1.25 41.6562C1.22917 41.2188 1.19792 40.8125 1.15625 40.4375C1.11458 40.0417 1.08333 39.7917 1.0625 39.6875V39.5938V39.375C1.08333 39.1875 1.10417 38.8854 1.125 38.4688C1.14583 38.0312 1.16667 37.5521 1.1875 37.0312C1.20833 36.4896 1.22917 35.9271 1.25 35.3438C1.27083 34.7604 1.29167 34.1979 1.3125 33.6562C1.33333 33.1146 1.35417 32.6354 1.375 32.2188C1.39583 31.8021 1.40625 31.4896 1.40625 31.2812C1.44792 31.2188 1.5 31.0729 1.5625 30.8438C1.625 30.6146 1.65625 30.4479 1.65625 30.3438V30.25V30.0938C1.63542 30.0312 1.55208 29.8854 1.40625 29.6562C1.28125 29.4062 1.16667 29.2396 1.0625 29.1562V19.5312C1.125 19.4896 1.19792 19.3646 1.28125 19.1562C1.36458 18.9271 1.40625 18.7604 1.40625 18.6562C1.40625 18.5938 1.38542 18.4479 1.34375 18.2188C1.32292 17.9688 1.28125 17.7188 1.21875 17.4688C1.17708 17.1979 1.13542 16.9479 1.09375 16.7188C1.07292 16.4688 1.0625 16.3125 1.0625 16.25V10.8438C1.0625 10.8229 1.04167 10.75 1 10.625C0.979167 10.5 0.947917 10.3646 0.90625 10.2188C0.885417 10.0729 0.864583 9.94792 0.84375 9.84375C0.822917 9.71875 0.8125 9.65625 0.8125 9.65625C0.791667 9.63542 0.770833 9.51042 0.75 9.28125C0.75 9.05208 0.75 8.79167 0.75 8.5C0.75 8.20833 0.75 7.91667 0.75 7.625C0.75 7.33333 0.75 7.10417 0.75 6.9375C0.75 6.8125 0.75 6.625 0.75 6.375C0.75 6.10417 0.75 5.83333 0.75 5.5625C0.75 5.27083 0.75 5.01042 0.75 4.78125C0.770833 4.53125 0.791667 4.35417 0.8125 4.25C1.08333 3.875 1.375 3.60417 1.6875 3.4375C2.02083 3.27083 2.36458 3.16667 2.71875 3.125C3.07292 3.0625 3.4375 3.03125 3.8125 3.03125C4.1875 3.03125 4.57292 3.02083 4.96875 3C5.03125 3 5.16667 2.98958 5.375 2.96875C5.60417 2.92708 5.83333 2.89583 6.0625 2.875C6.29167 2.83333 6.5 2.80208 6.6875 2.78125C6.89583 2.73958 7.02083 2.71875 7.0625 2.71875H8H10.4688C10.4896 2.71875 10.5417 2.70833 10.625 2.6875C10.7083 2.64583 10.7917 2.60417 10.875 2.5625C10.9792 2.52083 11.0729 2.48958 11.1562 2.46875C11.2396 2.42708 11.2812 2.40625 11.2812 2.40625C11.4062 2.38542 11.6667 2.36458 12.0625 2.34375C12.4792 2.30208 12.9271 2.27083 13.4062 2.25C13.8854 2.20833 14.3542 2.17708 14.8125 2.15625C15.2708 2.13542 15.625 2.125 15.875 2.125H16.4375H18C18.0417 2.08333 18.1771 2.02083 18.4062 1.9375C18.6354 1.85417 18.7708 1.8125 18.8125 1.8125H19.1875H19.4062C19.5104 1.8125 19.6771 1.83333 19.9062 1.875C20.1562 1.89583 20.4062 1.92708 20.6562 1.96875C20.9062 1.98958 21.1458 2.02083 21.375 2.0625C21.6042 2.08333 21.7708 2.10417 21.875 2.125ZM68.4062 45.3125L68.5312 45.125C68.5729 45.0625 68.6146 44.9688 68.6562 44.8438C68.6562 44.8021 68.7188 44.7083 68.8438 44.5625C68.9688 44.3958 69.0521 44.2917 69.0938 44.25C69.2396 44.0417 69.4479 43.8958 69.7188 43.8125C70.0104 43.7083 70.3021 43.625 70.5938 43.5625C70.9062 43.5 71.1771 43.4271 71.4062 43.3438C71.6562 43.2604 71.8229 43.125 71.9062 42.9375C72.1354 42.4792 72.2812 42.0104 72.3438 41.5312C72.4271 41.0312 72.5938 40.5625 72.8438 40.125V32.4688L73.4375 31.375V28.3438C73.4167 28.3229 73.3854 28.2812 73.3438 28.2188C73.2604 28.1354 73.2188 28.0521 73.2188 27.9688C73.1771 27.9271 73.1042 27.8125 73 27.625C72.8958 27.4167 72.8438 27.3021 72.8438 27.2812C72.7396 27.1354 72.6667 26.9271 72.625 26.6562C72.5833 26.3854 72.4896 26.1562 72.3438 25.9688C72.2812 25.9062 72.1562 25.7917 71.9688 25.625C71.8021 25.4583 71.625 25.2812 71.4375 25.0938C71.25 24.9062 71.0729 24.7396 70.9062 24.5938C70.7396 24.4271 70.625 24.3125 70.5625 24.25C70.3958 24.1458 70.1979 24.0833 69.9688 24.0625C69.7604 24.0417 69.5417 24.0312 69.3125 24.0312H68.5625H67.1562C67.0938 24.0312 66.9688 24.0729 66.7812 24.1562C66.5938 24.2188 66.4792 24.25 66.4375 24.25C65.7708 24.4583 65.2396 24.6354 64.8438 24.7812C64.4479 24.9271 64.125 25.125 63.875 25.375C63.625 25.6042 63.4271 25.9167 63.2812 26.3125C63.1354 26.7083 62.9792 27.2604 62.8125 27.9688V33.375C62.8125 33.4167 62.8021 33.5312 62.7812 33.7188C62.7604 33.9062 62.7396 34.1146 62.7188 34.3438C62.6979 34.5521 62.6771 34.75 62.6562 34.9375C62.6354 35.125 62.625 35.25 62.625 35.3125V35.5312V35.8125C62.625 35.8542 62.6354 36 62.6562 36.25C62.6771 36.4792 62.6979 36.7396 62.7188 37.0312C62.7396 37.3229 62.7604 37.6042 62.7812 37.875C62.8021 38.125 62.8125 38.2812 62.8125 38.3438C62.8125 38.6354 62.8021 38.9792 62.7812 39.375C62.7812 39.75 62.7812 40.1458 62.7812 40.5625C62.7812 41 62.8125 41.4271 62.875 41.8438C62.9375 42.2396 63.0521 42.6042 63.2188 42.9375C63.3229 43.125 63.4479 43.2604 63.5938 43.3438C63.7604 43.4271 63.9271 43.5 64.0938 43.5625C64.2812 43.625 64.4688 43.6875 64.6562 43.75C64.8438 43.8125 65.0104 43.9062 65.1562 44.0312C65.3854 44.1771 65.6146 44.3854 65.8438 44.6562C66.0938 44.9271 66.2188 45.2188 66.2188 45.5312V45.6875C66.1979 45.7917 66.1146 45.9167 65.9688 46.0625C65.8438 46.2083 65.7292 46.3229 65.625 46.4062C65.5625 46.4688 65.4688 46.5417 65.3438 46.625C65.2188 46.6875 65.1042 46.75 65 46.8125C64.8542 46.8958 64.7083 46.9792 64.5625 47.0625H56.9375C56.8958 47.0625 56.8125 47.0417 56.6875 47C56.5625 46.9583 56.4271 46.9167 56.2812 46.875C56.1562 46.8333 56.0312 46.7917 55.9062 46.75C55.7812 46.6875 55.6875 46.6458 55.625 46.625C55.3333 46.4375 55.1146 46.2083 54.9688 45.9375C54.8438 45.6667 54.7812 45.3854 54.7812 45.0938C54.7812 44.8229 54.8542 44.5833 55 44.375C55.1458 44.1458 55.3229 43.9375 55.5312 43.75C55.7396 43.5625 55.9479 43.375 56.1562 43.1875C56.3854 42.9792 56.5729 42.7396 56.7188 42.4688C56.7604 42.4271 56.8021 42.3229 56.8438 42.1562C56.9062 41.9896 56.9375 41.8958 56.9375 41.875V40.7188C56.9375 40.6771 56.9583 40.5938 57 40.4688C57.0417 40.3438 57.0833 40.2188 57.125 40.0938C57.1875 39.9479 57.2396 39.8125 57.2812 39.6875C57.3438 39.5625 57.3854 39.4792 57.4062 39.4375C57.4062 39.3958 57.3958 39.2396 57.375 38.9688C57.375 38.6979 57.375 38.4375 57.375 38.1875C57.375 37.9375 57.3854 37.7917 57.4062 37.75C57.4062 37.2708 57.4688 36.8229 57.5938 36.4062C57.7396 35.9688 57.8125 35.5312 57.8125 35.0938C57.8125 34.9062 57.8021 34.7396 57.7812 34.5938C57.7604 34.4479 57.6979 34.2604 57.5938 34.0312V29.0625C57.5521 28.5833 57.5 28.0833 57.4375 27.5625C57.3958 27.0208 57.2292 26.5625 56.9375 26.1875C56.3125 25.4583 55.6562 24.9167 54.9688 24.5625C54.2812 24.2083 53.4375 24.0312 52.4375 24.0312H51.5312C51.4688 24.0312 51.3542 24.0729 51.1875 24.1562C51.0417 24.2396 50.875 24.3333 50.6875 24.4375C50.5 24.5208 50.3125 24.6042 50.125 24.6875C49.9583 24.7708 49.8333 24.8333 49.75 24.875C49.3333 25.1667 49.0625 25.5 48.9375 25.875C48.8125 26.25 48.6667 26.6458 48.5 27.0625C48.4792 27.1042 48.4271 27.1875 48.3438 27.3125C48.2812 27.4375 48.2083 27.5729 48.125 27.7188C48.0417 27.8646 47.9688 28 47.9062 28.125C47.8438 28.25 47.8125 28.3229 47.8125 28.3438C47.7917 28.4062 47.7708 28.5729 47.75 28.8438C47.75 29.0938 47.7396 29.375 47.7188 29.6875C47.6979 29.9792 47.6771 30.2604 47.6562 30.5312C47.6354 30.7812 47.6146 30.9375 47.5938 31C47.5938 31.0417 47.5625 31.1875 47.5 31.4375C47.4375 31.6875 47.4062 31.8333 47.4062 31.875V32.6875C47.4062 33.4792 47.4167 34.3229 47.4375 35.2188C47.4792 36.1146 47.5312 36.9583 47.5938 37.75C47.6354 38.2292 47.6562 38.6562 47.6562 39.0312C47.6562 39.4062 47.7083 39.8229 47.8125 40.2812C47.8125 40.3438 47.8438 40.4583 47.9062 40.625C47.9688 40.7917 48.0417 40.9792 48.125 41.1875C48.2083 41.3958 48.2812 41.5833 48.3438 41.75C48.4271 41.9167 48.4792 42.0312 48.5 42.0938C48.5208 42.1354 48.5417 42.1875 48.5625 42.25C48.6042 42.375 48.6354 42.4479 48.6562 42.4688C48.7396 42.5938 48.8646 42.7812 49.0312 43.0312C49.2188 43.2604 49.3333 43.375 49.375 43.375C49.375 43.3958 49.4375 43.4271 49.5625 43.4688C49.6875 43.4896 49.8229 43.5208 49.9688 43.5625C50.1146 43.6042 50.25 43.6458 50.375 43.6875C50.5208 43.7083 50.6146 43.7292 50.6562 43.75C50.6979 43.8125 50.7812 43.9062 50.9062 44.0312C51.0312 44.1354 51.1562 44.2604 51.2812 44.4062C51.4271 44.5521 51.5625 44.6875 51.6875 44.8125C51.8125 44.9375 51.8854 45.0312 51.9062 45.0938C51.9062 45.1354 51.9167 45.2083 51.9375 45.3125C51.9792 45.4167 52 45.4896 52 45.5312C52 45.8229 51.8854 46.1042 51.6562 46.375C51.4271 46.6458 51.1458 46.7812 50.8125 46.7812L46.9375 46.9375L46.3438 47H41.75C41.5625 47.1042 41.4167 47.1771 41.3125 47.2188C41.2292 47.2604 41.1042 47.2812 40.9375 47.2812H40.6562C40.4688 47.2188 40.2396 47.1458 39.9688 47.0625C39.6979 46.9792 39.4375 46.875 39.1875 46.75C38.9375 46.625 38.7188 46.4792 38.5312 46.3125C38.3646 46.125 38.2812 45.9062 38.2812 45.6562C38.2812 45.3229 38.3438 45.0104 38.4688 44.7188C38.5938 44.4271 38.75 44.1042 38.9375 43.75C39.0625 43.5208 39.25 43.3542 39.5 43.25C39.75 43.1458 39.9896 43.0417 40.2188 42.9375C40.3646 42.8542 40.5104 42.7292 40.6562 42.5625C40.8021 42.375 40.9375 42.1771 41.0625 41.9688C41.1875 41.7396 41.2917 41.5208 41.375 41.3125C41.4583 41.0833 41.5104 40.8854 41.5312 40.7188C41.5521 40.5104 41.5938 40.1562 41.6562 39.6562C41.7188 39.1354 41.7812 38.5938 41.8438 38.0312C41.9271 37.4479 42 36.9062 42.0625 36.4062C42.125 35.8854 42.1667 35.5208 42.1875 35.3125V33.75V33.1562C42.1875 33.1354 42.2083 33.0833 42.25 33C42.2917 32.9167 42.3333 32.8333 42.375 32.75C42.4375 32.6458 42.4896 32.5521 42.5312 32.4688C42.5729 32.3854 42.5938 32.3229 42.5938 32.2812V31.9062C42.5938 31.4271 42.5625 30.9375 42.5 30.4375C42.4375 29.9167 42.4062 29.3958 42.4062 28.875C42.4062 28.6875 42.4375 28.5 42.5 28.3125C42.5625 28.125 42.5938 27.9375 42.5938 27.75V27.5312C42.5938 27.4688 42.5729 27.375 42.5312 27.25C42.4896 27.125 42.4479 27 42.4062 26.875C42.3646 26.7292 42.3229 26.5938 42.2812 26.4688C42.2396 26.3438 42.2083 26.25 42.1875 26.1875C42.0833 25.9167 41.8333 25.75 41.4375 25.6875C41.0625 25.6042 40.6667 25.5208 40.25 25.4375C39.8333 25.3542 39.4583 25.2188 39.125 25.0312C38.8125 24.8229 38.6562 24.4479 38.6562 23.9062C38.6562 23.7188 38.7083 23.5625 38.8125 23.4375C38.9167 23.3125 39.0312 23.1979 39.1562 23.0938C39.3021 22.9896 39.4479 22.9062 39.5938 22.8438C39.7604 22.7604 39.8958 22.6667 40 22.5625C40.0417 22.5208 40.1354 22.4271 40.2812 22.2812C40.4271 22.1146 40.5833 21.9479 40.75 21.7812C40.9167 21.5938 41.0729 21.4271 41.2188 21.2812C41.3646 21.1146 41.4688 21.0208 41.5312 21C41.5521 20.9792 41.6458 20.9583 41.8125 20.9375C42 20.8958 42.1875 20.8542 42.375 20.8125C42.5833 20.75 42.7708 20.6979 42.9375 20.6562C43.125 20.6146 43.2292 20.5833 43.25 20.5625C43.2917 20.5417 43.3646 20.4792 43.4688 20.375C43.5729 20.2708 43.6875 20.1562 43.8125 20.0312C43.9375 19.9062 44.0417 19.7917 44.125 19.6875C44.2292 19.5833 44.3021 19.5104 44.3438 19.4688C44.4479 19.3854 44.5938 19.3021 44.7812 19.2188C44.9688 19.1354 45.1562 19.0729 45.3438 19.0312C45.5521 18.9688 45.75 18.9271 45.9375 18.9062C46.125 18.8646 46.2812 18.8438 46.4062 18.8438H46.5C46.75 18.9062 46.9479 18.9583 47.0938 19C47.2396 19.0208 47.3438 19.0729 47.4062 19.1562C47.4896 19.2396 47.5417 19.3438 47.5625 19.4688C47.5833 19.5938 47.5938 19.7812 47.5938 20.0312C47.5938 20.3854 47.5625 20.7292 47.5 21.0625C47.4375 21.3958 47.4062 21.75 47.4062 22.125C47.4062 22.8542 47.7708 23.2188 48.5 23.2188C48.5417 23.2188 48.6042 23.2188 48.6875 23.2188C48.7708 23.2188 48.8333 23.1979 48.875 23.1562C48.9375 23.1146 49.0417 23.0417 49.1875 22.9375C49.3542 22.8125 49.5208 22.6771 49.6875 22.5312C49.8542 22.3854 50 22.25 50.125 22.125C50.2708 22 50.375 21.9167 50.4375 21.875L51.9062 20.4062C52.0938 20.2188 52.3229 20.1042 52.5938 20.0625C52.8646 20.0208 53.0833 19.9688 53.25 19.9062C53.3125 19.9062 53.4271 19.875 53.5938 19.8125C53.7812 19.7292 53.9688 19.6458 54.1562 19.5625C54.3438 19.4583 54.5104 19.3646 54.6562 19.2812C54.8229 19.1771 54.9375 19.1042 55 19.0625H58.5C58.6667 19.0625 58.8229 19.1146 58.9688 19.2188C59.1354 19.3229 59.2812 19.4479 59.4062 19.5938C59.5521 19.7396 59.6875 19.8958 59.8125 20.0625C59.9583 20.2083 60.0833 20.3229 60.1875 20.4062C60.2083 20.4479 60.3438 20.5104 60.5938 20.5938C60.8646 20.6771 61.0104 20.7396 61.0312 20.7812C61.2812 20.9062 61.4792 21.0938 61.625 21.3438C61.7708 21.5938 61.9167 21.8333 62.0625 22.0625C62.2083 22.2917 62.375 22.5 62.5625 22.6875C62.7708 22.8542 63.0417 22.9375 63.375 22.9375C63.6458 22.9375 63.875 22.8958 64.0625 22.8125C64.2708 22.7083 64.4375 22.5833 64.5625 22.4375C64.7083 22.2917 64.8438 22.1354 64.9688 21.9688C65.0938 21.7812 65.2292 21.6146 65.375 21.4688C65.4583 21.4062 65.5833 21.3021 65.75 21.1562C65.9375 21.0104 66.125 20.8542 66.3125 20.6875C66.5 20.5208 66.6667 20.3646 66.8125 20.2188C66.9792 20.0729 67.0938 19.9688 67.1562 19.9062C67.2396 19.8438 67.3854 19.7812 67.5938 19.7188C67.8021 19.6562 68.0208 19.6042 68.25 19.5625C68.4792 19.5 68.7083 19.4479 68.9375 19.4062C69.1667 19.3646 69.3438 19.3333 69.4688 19.3125C69.5312 19.2917 69.6562 19.2708 69.8438 19.25C70.0521 19.2083 70.2708 19.1771 70.5 19.1562C70.7292 19.1354 70.9479 19.1146 71.1562 19.0938C71.3646 19.0729 71.5208 19.0625 71.625 19.0625H72.125C72.7917 19.0625 73.3958 19.1354 73.9375 19.2812C74.5 19.4062 75.0521 19.6146 75.5938 19.9062C75.6146 19.9271 75.6875 19.9688 75.8125 20.0312C75.9375 20.0938 76.0729 20.1667 76.2188 20.25C76.3854 20.3125 76.5312 20.375 76.6562 20.4375C76.8021 20.5 76.8958 20.5417 76.9375 20.5625C76.9583 20.5833 77 20.6458 77.0625 20.75C77.1458 20.8542 77.2292 20.9792 77.3125 21.125C77.3958 21.2708 77.4792 21.4167 77.5625 21.5625C77.6458 21.6875 77.7083 21.7917 77.75 21.875C77.7708 21.9375 77.8125 22.0312 77.875 22.1562C77.9375 22.2812 78 22.4167 78.0625 22.5625C78.1458 22.6875 78.2188 22.8125 78.2812 22.9375C78.3438 23.0417 78.3854 23.1146 78.4062 23.1562C78.4271 23.2188 78.4688 23.375 78.5312 23.625C78.6146 23.8542 78.6979 24.1146 78.7812 24.4062C78.8854 24.6979 78.9792 24.9896 79.0625 25.2812C79.1667 25.5729 79.25 25.8021 79.3125 25.9688C79.3958 26.3021 79.4375 26.5312 79.4375 26.6562C79.4583 26.7812 79.4688 26.9688 79.4688 27.2188V27.5312C79.4688 27.5729 79.4479 27.6562 79.4062 27.7812C79.3646 27.9062 79.3229 28.0417 79.2812 28.1875C79.2396 28.3333 79.1979 28.4688 79.1562 28.5938C79.1146 28.7188 79.0938 28.8021 79.0938 28.8438V29.5938V31.375C79.0938 31.4583 79.0521 31.625 78.9688 31.875C78.9062 32.1042 78.8646 32.2396 78.8438 32.2812V33.875V34.4688C78.8021 35.3438 78.6875 36.1979 78.5 37.0312C78.3333 37.8438 78.25 38.6979 78.25 39.5938C78.25 40.1354 78.2708 40.6979 78.3125 41.2812C78.375 41.8646 78.5521 42.4167 78.8438 42.9375C79.0521 43.25 79.3542 43.5 79.75 43.6875C80.1458 43.8542 80.5312 44.0208 80.9062 44.1875C81.3021 44.3542 81.6354 44.5625 81.9062 44.8125C82.1979 45.0625 82.3438 45.4167 82.3438 45.875V46.1875C82.3021 46.2292 82.1979 46.3333 82.0312 46.5C81.8646 46.6458 81.7292 46.7396 81.625 46.7812C81.5625 46.8438 81.4583 46.9167 81.3125 47C81.1875 47.0625 81.0521 47.1354 80.9062 47.2188C80.7812 47.3021 80.6667 47.3646 80.5625 47.4062C80.4583 47.4688 80.4062 47.5 80.4062 47.5H71.0312C70.7604 47.5 70.4688 47.4479 70.1562 47.3438C69.8646 47.2396 69.5833 47.0938 69.3125 46.9062C69.0625 46.7188 68.8438 46.4896 68.6562 46.2188C68.4896 45.9479 68.4062 45.6458 68.4062 45.3125ZM86.375 59.875C86.375 58.8125 86.5625 58.0208 86.9375 57.5C87.3125 56.9792 88.0208 56.7188 89.0625 56.7188H89.5625C89.75 56.7188 89.9479 56.7292 90.1562 56.75C90.3646 56.7708 90.5625 56.8333 90.75 56.9375C90.9583 57.0625 91.1354 57.1771 91.2812 57.2812C91.4271 57.3854 91.5729 57.4792 91.7188 57.5625C91.8646 57.6458 92.0208 57.7083 92.1875 57.75C92.375 57.7917 92.6146 57.8125 92.9062 57.8125C93.1146 57.8125 93.3438 57.75 93.5938 57.625C93.8646 57.5 94.1146 57.3438 94.3438 57.1562C94.5729 56.9688 94.7708 56.7604 94.9375 56.5312C95.1042 56.3021 95.2188 56.0833 95.2812 55.875C95.3021 55.8333 95.3125 55.7292 95.3125 55.5625C95.3333 55.3958 95.3542 55.2083 95.375 55C95.3958 54.8125 95.4062 54.625 95.4062 54.4375C95.4271 54.2708 95.4375 54.1562 95.4375 54.0938C95.5 54.0312 95.5521 53.9167 95.5938 53.75C95.6354 53.6042 95.6562 53.5208 95.6562 53.5C95.6979 53.4583 95.8125 53.3438 96 53.1562C96.1875 52.9896 96.3125 52.8854 96.375 52.8438C96.4167 52.7812 96.4792 52.6771 96.5625 52.5312C96.6458 52.3854 96.7292 52.2396 96.8125 52.0938C96.9167 51.9688 97.0104 51.8438 97.0938 51.7188C97.1771 51.6146 97.2188 51.5521 97.2188 51.5312V50.6875C97.2188 50.625 97.2396 50.4479 97.2812 50.1562C97.3229 49.8854 97.3646 49.5833 97.4062 49.25C97.4479 48.9167 97.4896 48.6042 97.5312 48.3125C97.5729 48.0417 97.5938 47.875 97.5938 47.8125L97.7188 47.5938C97.7188 47.2604 97.6667 46.9688 97.5625 46.7188C97.4583 46.4479 97.3229 46.1979 97.1562 45.9688C97.0104 45.7396 96.8438 45.5104 96.6562 45.2812C96.4688 45.0521 96.3021 44.8125 96.1562 44.5625C96.1146 44.5208 96.0625 44.4167 96 44.25C95.9583 44.0833 95.9375 43.9688 95.9375 43.9062C95.9167 43.8438 95.8854 43.7083 95.8438 43.5C95.8021 43.2917 95.75 43.0625 95.6875 42.8125C95.6458 42.5625 95.5938 42.3333 95.5312 42.125C95.4896 41.9167 95.4583 41.7917 95.4375 41.75C95.2708 41.2708 95.0104 40.8021 94.6562 40.3438C94.3021 39.8854 94.0104 39.4062 93.7812 38.9062C93.7396 38.8646 93.6875 38.7292 93.625 38.5C93.5833 38.25 93.5417 38.1146 93.5 38.0938C93.3542 37.5104 93.1458 37.0104 92.875 36.5938C92.6042 36.1771 92.3229 35.7396 92.0312 35.2812C91.9896 35.2188 91.9271 35.125 91.8438 35C91.7812 34.875 91.7083 34.7396 91.625 34.5938C91.5625 34.4479 91.5 34.3125 91.4375 34.1875C91.3958 34.0417 91.3646 33.9479 91.3438 33.9062C91.3438 33.8854 91.3333 33.8333 91.3125 33.75C91.3125 33.6667 91.3021 33.5833 91.2812 33.5C91.2604 33.3958 91.2292 33.3125 91.1875 33.25C91.1667 33.1667 91.1458 33.1146 91.125 33.0938C91.1042 33.0521 91.0521 32.9688 90.9688 32.8438C90.8854 32.6979 90.7917 32.5521 90.6875 32.4062C90.5833 32.2604 90.4896 32.125 90.4062 32C90.3229 31.875 90.2708 31.7917 90.25 31.75C90.0625 31.4583 89.9167 31.2083 89.8125 31C89.7292 30.7708 89.6562 30.5521 89.5938 30.3438C89.5521 30.1354 89.5 29.9271 89.4375 29.7188C89.3958 29.4896 89.3125 29.2292 89.1875 28.9375C89.0417 28.5625 88.875 28.2396 88.6875 27.9688C88.5208 27.6771 88.3333 27.3958 88.125 27.125C87.9375 26.8542 87.7292 26.5833 87.5 26.3125C87.2708 26.0417 87.0312 25.75 86.7812 25.4375C86.7604 25.3958 86.6875 25.25 86.5625 25C86.4583 24.75 86.3958 24.6042 86.375 24.5625C86.1875 24.3125 85.9479 24.0938 85.6562 23.9062C85.3854 23.6979 85.1146 23.5 84.8438 23.3125C84.5938 23.1042 84.375 22.8854 84.1875 22.6562C84.0208 22.4062 83.9375 22.1042 83.9375 21.75C83.9375 21.3958 83.9479 21.0938 83.9688 20.8438C84.0104 20.5729 84.1458 20.3021 84.375 20.0312H85.8125C86.2917 20.0312 86.75 20.0729 87.1875 20.1562C87.625 20.2188 88.0938 20.25 88.5938 20.25C89.4271 20.25 90.2604 20.2188 91.0938 20.1562C91.9271 20.0729 92.75 20.0312 93.5625 20.0312C93.8542 20.0312 94.1667 20.0625 94.5 20.125C94.8333 20.1875 95.1354 20.2917 95.4062 20.4375C95.6979 20.5625 95.9375 20.75 96.125 21C96.3125 21.2292 96.4062 21.5208 96.4062 21.875C96.4062 22.2917 96.3542 22.5625 96.25 22.6875C96.1667 22.7917 96.0417 22.8438 95.875 22.8438H95.3438C95.2604 22.8438 95.1771 22.8438 95.0938 22.8438C95.0104 22.8438 94.9271 22.8542 94.8438 22.875C94.5938 22.9375 94.3854 23.125 94.2188 23.4375C94.0729 23.75 93.9583 24.0938 93.875 24.4688C93.8125 24.8229 93.7708 25.1771 93.75 25.5312C93.7292 25.8646 93.7188 26.1042 93.7188 26.25C93.7188 26.4792 93.7396 26.625 93.7812 26.6875C93.8229 26.75 93.8958 26.9271 94 27.2188C94.0208 27.3229 94.0625 27.4688 94.125 27.6562C94.1875 27.8229 94.25 28 94.3125 28.1875C94.3958 28.375 94.4583 28.5417 94.5 28.6875C94.5625 28.8333 94.5938 28.9167 94.5938 28.9375C94.5938 28.9792 94.625 29.0833 94.6875 29.25C94.7708 29.4167 94.8542 29.6042 94.9375 29.8125C95.0417 30.0208 95.1354 30.2292 95.2188 30.4375C95.3229 30.6458 95.3958 30.8125 95.4375 30.9375C95.5 30.9792 95.5521 31.0521 95.5938 31.1562C95.6146 31.2188 95.6354 31.2708 95.6562 31.3125C95.6979 31.3542 95.7812 31.4479 95.9062 31.5938C96.0521 31.7396 96.1979 31.9062 96.3438 32.0938C96.5104 32.2604 96.6562 32.4167 96.7812 32.5625C96.9062 32.7083 96.9792 32.8021 97 32.8438C97.0625 32.9479 97.1562 33.1562 97.2812 33.4688C97.4271 33.7812 97.5625 34.1146 97.6875 34.4688C97.8333 34.8021 97.9583 35.1354 98.0625 35.4688C98.1875 35.7812 98.2708 36 98.3125 36.125C98.4792 36.3125 98.6458 36.4583 98.8125 36.5625C99 36.6667 99.2292 36.7188 99.5 36.7188C99.9583 36.7188 100.396 36.6354 100.812 36.4688C101.25 36.3021 101.656 36.1042 102.031 35.875C102.052 35.7917 102.094 35.6354 102.156 35.4062C102.24 35.1562 102.323 34.8958 102.406 34.625C102.51 34.3333 102.604 34.0625 102.688 33.8125C102.771 33.5625 102.844 33.3854 102.906 33.2812C102.906 33.2604 102.927 33.1875 102.969 33.0625C103.031 32.9167 103.094 32.7812 103.156 32.6562C103.24 32.5104 103.312 32.375 103.375 32.25C103.438 32.125 103.479 32.0521 103.5 32.0312C103.521 31.9896 103.552 31.9062 103.594 31.7812C103.635 31.6354 103.688 31.4896 103.75 31.3438C103.812 31.1771 103.865 31.0312 103.906 30.9062C103.948 30.7812 103.979 30.7083 104 30.6875C104.042 30.5417 104.146 30.3646 104.312 30.1562C104.5 29.9271 104.594 29.6979 104.594 29.4688C104.594 29.2812 104.552 29.1042 104.469 28.9375C104.406 28.7708 104.375 28.5938 104.375 28.4062C104.375 27.8438 104.448 27.2917 104.594 26.75C104.76 26.1875 104.844 25.625 104.844 25.0625C104.844 24.6875 104.792 24.4375 104.688 24.3125C104.604 24.1667 104.479 24.0729 104.312 24.0312C104.167 23.9896 103.99 23.9583 103.781 23.9375C103.573 23.9167 103.354 23.8333 103.125 23.6875C103.083 23.6875 103.01 23.6562 102.906 23.5938C102.823 23.5312 102.719 23.4583 102.594 23.375C102.49 23.2708 102.375 23.1771 102.25 23.0938C102.146 23.0104 102.073 22.9375 102.031 22.875C101.823 22.6667 101.615 22.4688 101.406 22.2812C101.219 22.0729 101.125 21.8229 101.125 21.5312C101.125 21.2812 101.219 21.0729 101.406 20.9062C101.594 20.7396 101.812 20.6146 102.062 20.5312C102.333 20.4271 102.604 20.3542 102.875 20.3125C103.146 20.2708 103.354 20.25 103.5 20.25C103.625 20.25 103.927 20.2396 104.406 20.2188C104.906 20.1979 105.438 20.1771 106 20.1562C106.583 20.1146 107.115 20.0833 107.594 20.0625C108.094 20.0417 108.406 20.0312 108.531 20.0312C108.552 20.0312 108.615 20.0208 108.719 20C108.823 19.9792 108.927 19.9688 109.031 19.9688C109.156 19.9479 109.271 19.9271 109.375 19.9062C109.5 19.8854 109.583 19.875 109.625 19.875C109.646 19.875 109.792 19.8542 110.062 19.8125C110.354 19.7708 110.562 19.75 110.688 19.75C110.833 19.75 111.031 19.7708 111.281 19.8125C111.552 19.8542 111.719 19.875 111.781 19.875H112.531C112.823 19.875 113.104 19.8958 113.375 19.9375C113.646 19.9792 113.927 20.0833 114.219 20.25C114.219 20.2708 114.229 20.2917 114.25 20.3125C114.271 20.3125 114.292 20.3333 114.312 20.375C114.333 20.4167 114.354 20.4479 114.375 20.4688V22.0312L114.312 22.0938C114.25 22.1562 114.219 22.1875 114.219 22.1875C114.156 22.25 114.042 22.3333 113.875 22.4375C113.729 22.5417 113.573 22.6562 113.406 22.7812C113.24 22.8854 113.083 22.9896 112.938 23.0938C112.792 23.1979 112.688 23.2604 112.625 23.2812C112.583 23.3229 112.531 23.3542 112.469 23.375C112.365 23.4375 112.281 23.4688 112.219 23.4688C111.802 23.6354 111.438 23.7917 111.125 23.9375C110.833 24.0625 110.542 24.2708 110.25 24.5625C110.104 24.7292 109.938 24.9167 109.75 25.125C109.562 25.3333 109.375 25.5417 109.188 25.75C108.958 25.9792 108.74 26.2292 108.531 26.5C108.49 26.5625 108.448 26.6979 108.406 26.9062C108.365 27.1146 108.323 27.3438 108.281 27.5938C108.24 27.8438 108.198 28.0833 108.156 28.3125C108.135 28.5208 108.115 28.6458 108.094 28.6875C108.052 28.7708 107.969 28.9271 107.844 29.1562C107.74 29.3854 107.667 29.5312 107.625 29.5938C107.625 29.6146 107.615 29.6771 107.594 29.7812C107.573 29.8854 107.552 30 107.531 30.125C107.51 30.25 107.49 30.375 107.469 30.5C107.448 30.6042 107.438 30.6667 107.438 30.6875C107.312 31.0417 107.135 31.3646 106.906 31.6562C106.677 31.9479 106.5 32.2708 106.375 32.625C106.042 33.4167 105.719 34.1875 105.406 34.9375C105.094 35.6667 104.823 36.4271 104.594 37.2188C104.594 37.2604 104.552 37.4062 104.469 37.6562C104.406 37.8854 104.375 38.0312 104.375 38.0938C104.354 38.1354 104.323 38.2812 104.281 38.5312C104.24 38.7812 104.198 39.0625 104.156 39.375C104.115 39.6667 104.073 39.9479 104.031 40.2188C104.01 40.4688 104 40.625 104 40.6875C103.854 41.2917 103.635 41.9062 103.344 42.5312C103.052 43.1354 102.812 43.7396 102.625 44.3438C102.521 44.7188 102.427 45.1354 102.344 45.5938C102.281 46.0312 102.177 46.4062 102.031 46.7188C102.01 46.7604 101.958 46.8438 101.875 46.9688C101.812 47.0729 101.74 47.1771 101.656 47.2812C101.594 47.4062 101.531 47.5208 101.469 47.625C101.406 47.7292 101.365 47.7917 101.344 47.8125C101.094 48.25 100.906 48.7083 100.781 49.1875C100.677 49.6667 100.573 50.1667 100.469 50.6875V51.0625C100.448 51.1042 100.406 51.1875 100.344 51.3125C100.281 51.4583 100.208 51.6042 100.125 51.75C100.062 51.9167 100 52.0625 99.9375 52.1875C99.8958 52.3125 99.875 52.3854 99.875 52.4062C99.8542 52.4271 99.8125 52.4896 99.75 52.5938C99.7083 52.7188 99.6562 52.8542 99.5938 53C99.5521 53.1667 99.5104 53.3125 99.4688 53.4375C99.4271 53.5833 99.4062 53.6771 99.4062 53.7188C99.3646 53.7396 99.25 53.8333 99.0625 54C98.875 54.1667 98.75 54.2708 98.6875 54.3125C98.6875 54.3542 98.6771 54.4479 98.6562 54.5938C98.6562 54.7604 98.6458 54.9271 98.625 55.0938C98.6042 55.2812 98.5833 55.4479 98.5625 55.5938C98.5625 55.7396 98.5521 55.8333 98.5312 55.875C98.4479 56.2917 98.3438 56.7396 98.2188 57.2188C98.0938 57.7188 97.8854 58.1458 97.5938 58.5C97.1562 59 96.6875 59.5104 96.1875 60.0312C95.7083 60.5729 95.1875 61.0625 94.625 61.5C94.0625 61.9375 93.4583 62.2917 92.8125 62.5625C92.1667 62.8542 91.4792 63 90.75 63C89.9792 63 89.3125 62.8438 88.75 62.5312C88.2083 62.2396 87.6979 61.8229 87.2188 61.2812C87.1562 61.2188 87.0833 61.125 87 61C86.9167 60.875 86.8229 60.75 86.7188 60.625C86.6354 60.5208 86.5521 60.4271 86.4688 60.3438C86.4062 60.2604 86.375 60.2083 86.375 60.1875V59.875ZM131.656 47.4375C131.615 47.3542 131.552 47.1979 131.469 46.9688C131.406 46.7188 131.333 46.4688 131.25 46.2188C131.188 45.9688 131.125 45.7396 131.062 45.5312C131 45.3021 130.958 45.1458 130.938 45.0625C130.896 44.9792 130.854 44.8542 130.812 44.6875C130.792 44.5208 130.781 44.4062 130.781 44.3438C130.76 44.3021 130.698 44.1875 130.594 44C130.51 43.8125 130.417 43.6146 130.312 43.4062C130.229 43.1771 130.135 42.9688 130.031 42.7812C129.948 42.5938 129.896 42.4688 129.875 42.4062C129.833 42.3646 129.792 42.2188 129.75 41.9688C129.708 41.7188 129.688 41.5729 129.688 41.5312C129.667 41.5312 129.615 41.4896 129.531 41.4062C129.469 41.3229 129.396 41.2396 129.312 41.1562C129.25 41.0521 129.188 40.9583 129.125 40.875C129.062 40.7708 129.021 40.7083 129 40.6875C128.979 40.6667 128.958 40.6042 128.938 40.5C128.917 40.375 128.896 40.25 128.875 40.125C128.854 40 128.833 39.8854 128.812 39.7812C128.792 39.6771 128.781 39.6146 128.781 39.5938C128.781 39.5521 128.719 39.3958 128.594 39.125C128.49 38.8542 128.406 38.6458 128.344 38.5C127.865 37.375 127.438 36.1979 127.062 34.9688C126.708 33.7188 126.344 32.5 125.969 31.3125C125.802 30.75 125.604 30.1771 125.375 29.5938C125.146 28.9896 124.906 28.4167 124.656 27.875C124.656 27.8542 124.625 27.7812 124.562 27.6562C124.5 27.5104 124.427 27.3646 124.344 27.2188C124.26 27.0729 124.188 26.9375 124.125 26.8125C124.062 26.6667 124.031 26.5625 124.031 26.5C123.99 26.4792 123.958 26.3958 123.938 26.25C123.917 26.1042 123.896 25.9479 123.875 25.7812C123.854 25.6146 123.833 25.4583 123.812 25.3125C123.812 25.1667 123.812 25.0833 123.812 25.0625C123.771 24.7708 123.719 24.5 123.656 24.25C123.615 23.9792 123.521 23.7188 123.375 23.4688C123.354 23.4688 123.302 23.4271 123.219 23.3438C123.156 23.2604 123.083 23.1771 123 23.0938C122.938 22.9896 122.875 22.8958 122.812 22.8125C122.75 22.7292 122.719 22.6875 122.719 22.6875C122.698 22.625 122.677 22.5104 122.656 22.3438C122.635 22.1562 122.615 21.9688 122.594 21.7812C122.573 21.5729 122.552 21.3958 122.531 21.25C122.51 21.0833 122.5 20.9792 122.5 20.9375C122.5 20.8958 122.479 20.8229 122.438 20.7188C122.396 20.5938 122.354 20.4688 122.312 20.3438C122.271 20.1979 122.219 20.0625 122.156 19.9375C122.115 19.8125 122.073 19.7188 122.031 19.6562C121.948 19.4062 121.792 18.9896 121.562 18.4062C121.333 17.8229 121.094 17.2083 120.844 16.5625C120.594 15.9167 120.354 15.3125 120.125 14.75C119.917 14.1667 119.771 13.7604 119.688 13.5312C119.688 13.4479 119.656 13.2708 119.594 13C119.552 12.7292 119.51 12.5521 119.469 12.4688C119.469 12.4479 119.427 12.375 119.344 12.25C119.281 12.1042 119.208 11.9583 119.125 11.8125C119.062 11.6458 118.99 11.5 118.906 11.375C118.844 11.2292 118.802 11.1354 118.781 11.0938V10.5C118.781 10.3958 118.75 10.2396 118.688 10.0312C118.646 9.80208 118.625 9.67708 118.625 9.65625C118.583 9.63542 118.5 9.55208 118.375 9.40625C118.25 9.23958 118.104 9.0625 117.938 8.875C117.771 8.66667 117.604 8.45833 117.438 8.25C117.271 8.02083 117.146 7.83333 117.062 7.6875C116.958 7.5 116.844 7.38542 116.719 7.34375C116.594 7.30208 116.417 7.26042 116.188 7.21875C116.146 7.21875 116.073 7.20833 115.969 7.1875C115.865 7.16667 115.75 7.14583 115.625 7.125C115.521 7.10417 115.406 7.08333 115.281 7.0625C115.177 7.04167 115.115 7.02083 115.094 7C115.073 7 115.021 6.98958 114.938 6.96875C114.854 6.94792 114.76 6.92708 114.656 6.90625C114.573 6.86458 114.49 6.83333 114.406 6.8125C114.344 6.79167 114.302 6.78125 114.281 6.78125C114.24 6.78125 114.146 6.78125 114 6.78125C113.875 6.76042 113.74 6.73958 113.594 6.71875C113.448 6.69792 113.302 6.67708 113.156 6.65625C113.031 6.63542 112.958 6.625 112.938 6.625C112.875 6.58333 112.781 6.51042 112.656 6.40625C112.531 6.28125 112.396 6.14583 112.25 6C112.104 5.85417 111.979 5.71875 111.875 5.59375C111.75 5.46875 111.677 5.375 111.656 5.3125V5.0625C111.656 4.64583 111.771 4.32292 112 4.09375C112.208 3.84375 112.479 3.65625 112.812 3.53125C113.167 3.40625 113.542 3.33333 113.938 3.3125C114.333 3.27083 114.708 3.25 115.062 3.25H115.688C116.021 3.25 116.323 3.26042 116.594 3.28125C116.865 3.30208 117.177 3.38542 117.531 3.53125H122.25C122.625 3.34375 122.99 3.22917 123.344 3.1875C123.698 3.125 124.052 3.09375 124.406 3.09375H125.594H126.188C126.208 3.09375 126.271 3.08333 126.375 3.0625C126.479 3.04167 126.594 3.02083 126.719 3C126.844 2.95833 126.958 2.92708 127.062 2.90625C127.167 2.88542 127.24 2.875 127.281 2.875H127.688C127.854 2.875 128.042 2.89583 128.25 2.9375C128.458 2.97917 128.646 3.04167 128.812 3.125C129 3.20833 129.156 3.32292 129.281 3.46875C129.406 3.59375 129.469 3.76042 129.469 3.96875C129.469 4.55208 129.344 4.97917 129.094 5.25C128.865 5.5 128.573 5.67708 128.219 5.78125C127.865 5.88542 127.479 5.94792 127.062 5.96875C126.646 5.96875 126.26 6.01042 125.906 6.09375C125.552 6.17708 125.25 6.34375 125 6.59375C124.771 6.82292 124.656 7.20833 124.656 7.75C124.656 8.27083 124.74 8.70833 124.906 9.0625C125.094 9.41667 125.219 9.8125 125.281 10.25C125.302 10.3125 125.323 10.4271 125.344 10.5938C125.365 10.7396 125.385 10.8958 125.406 11.0625C125.427 11.2292 125.448 11.3854 125.469 11.5312C125.49 11.6771 125.51 11.7708 125.531 11.8125C125.552 11.875 125.615 12.0312 125.719 12.2812C125.844 12.5104 125.958 12.7604 126.062 13.0312C126.188 13.2812 126.302 13.5208 126.406 13.75C126.51 13.9792 126.583 14.125 126.625 14.1875C126.625 14.2083 126.635 14.2708 126.656 14.375C126.677 14.4583 126.698 14.5625 126.719 14.6875C126.76 14.7917 126.792 14.9062 126.812 15.0312C126.833 15.1354 126.844 15.2083 126.844 15.25V16.7812C126.865 17.1354 127.01 17.4688 127.281 17.7812C127.573 18.0938 127.781 18.4271 127.906 18.7812C127.948 18.8229 127.99 18.9271 128.031 19.0938C128.094 19.2396 128.125 19.3333 128.125 19.375C128.146 19.3958 128.167 19.4688 128.188 19.5938C128.208 19.6979 128.229 19.8125 128.25 19.9375C128.271 20.0625 128.292 20.1771 128.312 20.2812C128.333 20.3854 128.344 20.4479 128.344 20.4688C128.615 21.1771 128.927 21.8646 129.281 22.5312C129.635 23.1979 129.896 23.8958 130.062 24.625C130.083 24.6458 130.104 24.7188 130.125 24.8438C130.146 24.9688 130.167 25.1146 130.188 25.2812C130.208 25.4271 130.229 25.5625 130.25 25.6875C130.271 25.8125 130.281 25.8854 130.281 25.9062C130.302 25.9479 130.344 26.0312 130.406 26.1562C130.469 26.2604 130.531 26.3854 130.594 26.5312C130.677 26.6562 130.75 26.7917 130.812 26.9375C130.875 27.0625 130.917 27.1562 130.938 27.2188C131 27.2604 131.125 27.4062 131.312 27.6562C131.5 27.8854 131.615 28.0312 131.656 28.0938C131.656 28.0938 131.667 28.1667 131.688 28.3125C131.729 28.4583 131.76 28.625 131.781 28.8125C131.823 29 131.865 29.1979 131.906 29.4062C131.948 29.5938 131.99 29.75 132.031 29.875C132.031 29.875 132.042 29.9271 132.062 30.0312C132.083 30.1354 132.104 30.25 132.125 30.375C132.167 30.4792 132.198 30.5938 132.219 30.7188C132.24 30.8229 132.25 30.8958 132.25 30.9375C132.312 31.0417 132.396 31.2188 132.5 31.4688C132.625 31.6979 132.75 31.9583 132.875 32.25C133.021 32.5208 133.156 32.7812 133.281 33.0312C133.427 33.2604 133.531 33.4167 133.594 33.5C133.635 33.6042 133.729 33.7396 133.875 33.9062C134.042 34.0521 134.146 34.1458 134.188 34.1875C134.229 34.2083 134.292 34.2188 134.375 34.2188C134.417 34.2396 134.469 34.25 134.531 34.25C134.594 34.25 134.646 34.25 134.688 34.25H134.75C134.812 34.25 134.865 34.2396 134.906 34.2188C134.969 34.2188 135.031 34.2083 135.094 34.1875C135.156 34.1458 135.292 34.0104 135.5 33.7812C135.729 33.5521 135.885 33.3854 135.969 33.2812C136.26 32.8229 136.469 32.3854 136.594 31.9688C136.74 31.5312 136.844 31.0938 136.906 30.6562C136.99 30.2188 137.062 29.7708 137.125 29.3125C137.188 28.8542 137.292 28.375 137.438 27.875C137.479 27.7917 137.521 27.6875 137.562 27.5625C137.625 27.4167 137.677 27.2708 137.719 27.125C137.76 26.9792 137.802 26.8542 137.844 26.75C137.885 26.625 137.906 26.5417 137.906 26.5C137.927 26.4792 137.979 26.3958 138.062 26.25C138.146 26.0833 138.24 25.9062 138.344 25.7188C138.448 25.5312 138.542 25.3542 138.625 25.1875C138.708 25.0208 138.76 24.9062 138.781 24.8438C138.802 24.7812 138.823 24.6146 138.844 24.3438C138.865 24.0521 138.885 23.75 138.906 23.4375C138.927 23.1042 138.938 22.8021 138.938 22.5312C138.958 22.2604 138.979 22.0938 139 22.0312C139 21.9896 139.031 21.8958 139.094 21.75C139.156 21.6042 139.229 21.4479 139.312 21.2812C139.396 21.0938 139.469 20.9271 139.531 20.7812C139.615 20.6146 139.667 20.5104 139.688 20.4688C139.688 20.4271 139.698 20.3125 139.719 20.125C139.76 19.9167 139.802 19.7083 139.844 19.5C139.906 19.2708 139.958 19.0625 140 18.875C140.042 18.6875 140.073 18.5833 140.094 18.5625C140.26 17.8958 140.438 17.2396 140.625 16.5938C140.833 15.9271 141.01 15.2708 141.156 14.625C141.156 14.5833 141.167 14.4792 141.188 14.3125C141.208 14.1458 141.229 13.9688 141.25 13.7812C141.292 13.5729 141.323 13.3854 141.344 13.2188C141.365 13.0521 141.375 12.9375 141.375 12.875C141.396 12.8333 141.427 12.7604 141.469 12.6562C141.51 12.5521 141.552 12.4479 141.594 12.3438C141.656 12.2188 141.708 12.1042 141.75 12C141.792 11.8958 141.833 11.8333 141.875 11.8125V11.0938V10.25C141.833 10.1458 141.802 9.98958 141.781 9.78125C141.76 9.57292 141.74 9.36458 141.719 9.15625C141.698 8.94792 141.677 8.77083 141.656 8.625C141.635 8.45833 141.615 8.36458 141.594 8.34375C141.51 8.01042 141.354 7.625 141.125 7.1875C140.896 6.75 140.615 6.39583 140.281 6.125C139.969 5.91667 139.625 5.80208 139.25 5.78125C138.896 5.73958 138.552 5.69792 138.219 5.65625C137.885 5.61458 137.604 5.51042 137.375 5.34375C137.167 5.15625 137.062 4.80208 137.062 4.28125C137.062 3.86458 137.229 3.48958 137.562 3.15625C137.896 2.82292 138.271 2.65625 138.688 2.65625C138.875 2.65625 139.062 2.69792 139.25 2.78125C139.438 2.84375 139.625 2.875 139.812 2.875H140.094C140.302 2.875 140.615 2.875 141.031 2.875C141.448 2.85417 141.917 2.84375 142.438 2.84375C142.979 2.82292 143.531 2.80208 144.094 2.78125C144.677 2.76042 145.229 2.75 145.75 2.75C146.292 2.72917 146.771 2.71875 147.188 2.71875C147.604 2.69792 147.917 2.67708 148.125 2.65625C148.167 2.63542 148.271 2.59375 148.438 2.53125C148.604 2.46875 148.698 2.4375 148.719 2.4375H151.156C151.198 2.4375 151.333 2.41667 151.562 2.375C151.812 2.3125 151.969 2.28125 152.031 2.28125C152.052 2.28125 152.083 2.27083 152.125 2.25C152.167 2.20833 152.208 2.1875 152.25 2.1875C152.375 2.1875 152.49 2.20833 152.594 2.25C152.698 2.29167 152.812 2.35417 152.938 2.4375C153.021 2.54167 153.135 2.66667 153.281 2.8125C153.427 2.95833 153.562 3.10417 153.688 3.25C153.833 3.375 153.948 3.48958 154.031 3.59375C154.135 3.67708 154.188 3.72917 154.188 3.75V3.96875C154.188 3.98958 154.135 4.0625 154.031 4.1875C153.948 4.29167 153.833 4.41667 153.688 4.5625C153.562 4.70833 153.427 4.85417 153.281 5C153.135 5.125 153.021 5.22917 152.938 5.3125C152.604 5.5625 152.229 5.77083 151.812 5.9375C151.417 6.08333 151.01 6.22917 150.594 6.375C150.198 6.5 149.802 6.64583 149.406 6.8125C149.01 6.97917 148.656 7.19792 148.344 7.46875C148.094 7.67708 147.875 7.875 147.688 8.0625C147.521 8.22917 147.375 8.41667 147.25 8.625C147.125 8.8125 147.01 9.02083 146.906 9.25C146.802 9.47917 146.688 9.73958 146.562 10.0312C146.542 10.0938 146.479 10.2292 146.375 10.4375C146.271 10.6458 146.156 10.875 146.031 11.125C145.906 11.375 145.781 11.6042 145.656 11.8125C145.552 12.0208 145.5 12.1458 145.5 12.1875V13.3125V13.75L145.438 13.9375C145.417 13.9792 145.385 14.0208 145.344 14.0625C145.323 14.1042 145.302 14.1458 145.281 14.1875C145.24 14.2292 145.167 14.3438 145.062 14.5312C144.979 14.6979 144.927 14.8021 144.906 14.8438C144.823 15.4688 144.719 16.0417 144.594 16.5625C144.469 17.0833 144.323 17.6042 144.156 18.125C144.01 18.625 143.844 19.1354 143.656 19.6562C143.469 20.1771 143.281 20.7292 143.094 21.3125C143.094 21.3333 143.083 21.3958 143.062 21.5C143.042 21.5833 143.021 21.6875 143 21.8125C143 21.9167 142.99 22.0312 142.969 22.1562C142.948 22.2604 142.938 22.3438 142.938 22.4062C142.917 22.4688 142.885 22.5833 142.844 22.75C142.823 22.8958 142.802 23.0521 142.781 23.2188C142.76 23.3854 142.74 23.5417 142.719 23.6875C142.698 23.8333 142.688 23.9271 142.688 23.9688C142.688 24.0312 142.646 24.1562 142.562 24.3438C142.5 24.5312 142.417 24.7396 142.312 24.9688C142.229 25.1771 142.146 25.3958 142.062 25.625C141.979 25.8333 141.917 26 141.875 26.125C141.833 26.1875 141.76 26.3021 141.656 26.4688C141.573 26.6354 141.479 26.8229 141.375 27.0312C141.292 27.2188 141.198 27.3958 141.094 27.5625C141.01 27.7292 140.958 27.8333 140.938 27.875V28.0938V28.5C140.917 28.5417 140.865 28.6146 140.781 28.7188C140.698 28.8229 140.604 28.9375 140.5 29.0625C140.396 29.1667 140.302 29.2812 140.219 29.4062C140.135 29.5104 140.094 29.5729 140.094 29.5938C139.927 29.9062 139.802 30.2708 139.719 30.6875C139.656 31.0833 139.594 31.5 139.531 31.9375C139.49 32.3542 139.448 32.7708 139.406 33.1875C139.365 33.6042 139.302 33.9896 139.219 34.3438C139.177 34.4271 139.125 34.5625 139.062 34.75C139.021 34.9167 139 35.0208 139 35.0625C138.583 35.875 138.208 36.6979 137.875 37.5312C137.542 38.3438 137.198 39.1771 136.844 40.0312C136.698 40.3646 136.521 40.6979 136.312 41.0312C136.125 41.3438 136.01 41.6771 135.969 42.0312C135.948 42.0729 135.927 42.2083 135.906 42.4375C135.885 42.6667 135.865 42.9167 135.844 43.1875C135.844 43.4583 135.833 43.7083 135.812 43.9375C135.792 44.1667 135.771 44.3021 135.75 44.3438C135.729 44.3854 135.677 44.4688 135.594 44.5938C135.51 44.7188 135.417 44.8542 135.312 45C135.208 45.1458 135.115 45.2917 135.031 45.4375C134.948 45.5625 134.896 45.6354 134.875 45.6562C134.75 45.9062 134.667 46.1979 134.625 46.5312C134.583 46.8646 134.521 47.1771 134.438 47.4688C134.375 47.7604 134.24 48 134.031 48.1875C133.844 48.3958 133.531 48.5 133.094 48.5C132.802 48.5 132.521 48.3646 132.25 48.0938C131.979 47.8438 131.781 47.625 131.656 47.4375ZM157.938 33.9688C157.938 35.0521 158.125 36.0729 158.5 37.0312C158.875 37.9688 159.333 38.9167 159.875 39.875C160.021 40.125 160.135 40.375 160.219 40.625C160.302 40.8542 160.396 41.0833 160.5 41.3125C160.604 41.5208 160.729 41.7188 160.875 41.9062C161.042 42.0938 161.271 42.2604 161.562 42.4062C161.604 42.4271 161.677 42.4583 161.781 42.5C161.906 42.5417 162.021 42.5938 162.125 42.6562C162.25 42.7188 162.365 42.7708 162.469 42.8125C162.573 42.8542 162.625 42.8854 162.625 42.9062C162.833 43.0312 163.01 43.1771 163.156 43.3438C163.302 43.5104 163.448 43.6667 163.594 43.8125C163.76 43.9583 163.927 44.0833 164.094 44.1875C164.281 44.2917 164.5 44.3438 164.75 44.3438C165.375 44.3438 165.958 44.2083 166.5 43.9375C167.062 43.6667 167.583 43.3229 168.062 42.9062C168.562 42.4896 169.031 42.0521 169.469 41.5938C169.906 41.1146 170.312 40.6667 170.688 40.25C170.833 39.7292 171.01 39.3229 171.219 39.0312C171.427 38.7188 171.615 38.3333 171.781 37.875C172.01 37.2708 172.146 36.7083 172.188 36.1875C172.229 35.6458 172.25 35.0729 172.25 34.4688C172.25 33.4062 172.146 32.3229 171.938 31.2188C171.75 30.0938 171.458 29.0104 171.062 27.9688C170.667 26.9062 170.167 25.9062 169.562 24.9688C168.958 24.0104 168.25 23.1771 167.438 22.4688C167.333 22.4688 167.125 22.4583 166.812 22.4375C166.5 22.4167 166.292 22.4062 166.188 22.4062C165.208 22.4062 164.271 22.5625 163.375 22.875C162.479 23.1875 161.75 23.7708 161.188 24.625C161.083 24.7292 160.948 24.8958 160.781 25.125C160.615 25.3542 160.51 25.4896 160.469 25.5312C160.427 25.5312 160.312 25.5938 160.125 25.7188C159.958 25.8229 159.875 25.8854 159.875 25.9062C159.792 25.9896 159.698 26.1146 159.594 26.2812C159.49 26.4271 159.417 26.5417 159.375 26.625C159.375 26.6458 159.365 26.7292 159.344 26.875C159.344 27.0208 159.333 27.1771 159.312 27.3438C159.292 27.5104 159.271 27.6771 159.25 27.8438C159.229 27.9896 159.208 28.0729 159.188 28.0938C159.188 28.1771 159.115 28.3333 158.969 28.5625C158.844 28.7708 158.781 28.8958 158.781 28.9375C158.656 29.2083 158.562 29.5 158.5 29.8125C158.458 30.125 158.396 30.4271 158.312 30.7188C158.292 30.8646 158.26 31.0833 158.219 31.375C158.177 31.6667 158.135 31.9583 158.094 32.25C158.052 32.5417 158.01 32.8125 157.969 33.0625C157.948 33.2917 157.938 33.4375 157.938 33.5V33.9688ZM162.031 47.2188C161.823 47.0938 161.583 47 161.312 46.9375C161.062 46.875 160.802 46.8229 160.531 46.7812C160.281 46.7188 160.031 46.6562 159.781 46.5938C159.552 46.5312 159.354 46.4479 159.188 46.3438C159.104 46.2812 158.958 46.1771 158.75 46.0312C158.542 45.8646 158.323 45.6875 158.094 45.5C157.865 45.3125 157.646 45.1354 157.438 44.9688C157.229 44.7812 157.083 44.6458 157 44.5625C156.875 44.4375 156.688 44.2604 156.438 44.0312C156.188 43.7812 155.938 43.5312 155.688 43.2812C155.438 43.0312 155.208 42.8021 155 42.5938C154.812 42.3854 154.708 42.25 154.688 42.1875C154.667 42.1875 154.604 42.1042 154.5 41.9375C154.396 41.75 154.271 41.5312 154.125 41.2812C153.979 41.0312 153.833 40.7812 153.688 40.5312C153.542 40.2604 153.427 40.0417 153.344 39.875C153.24 39.6667 153.104 39.4167 152.938 39.125C152.792 38.8125 152.646 38.5 152.5 38.1875C152.375 37.875 152.26 37.5729 152.156 37.2812C152.073 36.9688 152.031 36.7083 152.031 36.5V31.0938C152.198 30.6354 152.333 30.1562 152.438 29.6562C152.562 29.1562 152.646 28.6354 152.688 28.0938C152.75 27.9688 152.854 27.75 153 27.4375C153.167 27.125 153.344 26.8021 153.531 26.4688C153.719 26.1146 153.896 25.7917 154.062 25.5C154.229 25.1875 154.344 24.9688 154.406 24.8438C154.719 24.3229 155.062 23.8646 155.438 23.4688C155.833 23.0729 156.25 22.7188 156.688 22.4062C157.125 22.0938 157.583 21.8125 158.062 21.5625C158.562 21.2917 159.073 21.0104 159.594 20.7188C160.135 20.4479 160.74 20.25 161.406 20.125C162.094 20 162.74 19.8438 163.344 19.6562C163.573 19.5521 163.792 19.4479 164 19.3438C164.208 19.2188 164.458 19.1562 164.75 19.1562C164.771 19.1562 164.812 19.1562 164.875 19.1562C164.958 19.1562 165.021 19.1771 165.062 19.2188C165.104 19.2188 165.24 19.2604 165.469 19.3438C165.719 19.4062 165.875 19.4375 165.938 19.4375H167.438C167.729 19.4375 167.969 19.5 168.156 19.625C168.365 19.7292 168.552 19.8438 168.719 19.9688C168.885 20.0938 169.052 20.2188 169.219 20.3438C169.385 20.4479 169.583 20.5 169.812 20.5H171.219H171.781C171.802 20.5 171.854 20.5312 171.938 20.5938C172.042 20.6562 172.135 20.7292 172.219 20.8125C172.323 20.875 172.417 20.9375 172.5 21C172.583 21.0625 172.625 21.0938 172.625 21.0938C172.667 21.1562 172.75 21.2083 172.875 21.25C173 21.2917 173.083 21.3333 173.125 21.375C173.167 21.375 173.333 21.4062 173.625 21.4688C173.917 21.5104 174.104 21.5521 174.188 21.5938C174.333 21.6562 174.438 21.75 174.5 21.875C174.583 21.9792 174.635 22.0938 174.656 22.2188C174.698 22.3438 174.74 22.4688 174.781 22.5938C174.823 22.6979 174.896 22.7917 175 22.875C175.021 22.8958 175.073 22.9375 175.156 23C175.26 23.0625 175.354 23.1354 175.438 23.2188C175.542 23.2812 175.635 23.3438 175.719 23.4062C175.802 23.4688 175.854 23.5104 175.875 23.5312C175.917 23.5312 175.958 23.5625 176 23.625C176.062 23.6667 176.094 23.7083 176.094 23.75C176.219 23.875 176.365 24.0312 176.531 24.2188C176.719 24.4062 176.896 24.5938 177.062 24.7812C177.229 24.9688 177.365 25.1354 177.469 25.2812C177.594 25.4271 177.656 25.5104 177.656 25.5312C177.677 25.5521 177.688 25.625 177.688 25.75C177.708 25.875 177.729 26.0104 177.75 26.1562C177.771 26.3021 177.781 26.4375 177.781 26.5625C177.802 26.6875 177.812 26.7604 177.812 26.7812C177.833 26.8438 177.875 26.9792 177.938 27.1875C178.021 27.375 178.094 27.5729 178.156 27.7812C178.24 27.9896 178.312 28.1979 178.375 28.4062C178.438 28.5938 178.49 28.7188 178.531 28.7812V35.0625C178.531 35.125 178.51 35.25 178.469 35.4375C178.448 35.6042 178.406 35.8021 178.344 36.0312C178.302 36.2604 178.25 36.4896 178.188 36.7188C178.125 36.9271 178.073 37.0938 178.031 37.2188C178.031 37.2604 177.979 37.4062 177.875 37.6562C177.771 37.9062 177.698 38.0521 177.656 38.0938C177.531 38.4479 177.438 38.8229 177.375 39.2188C177.333 39.6146 177.198 39.9583 176.969 40.25C176.969 40.2708 176.906 40.3438 176.781 40.4688C176.719 40.5312 176.656 40.6042 176.594 40.6875C176.26 41.1042 175.969 41.5938 175.719 42.1562C175.49 42.7188 175.188 43.1667 174.812 43.5C174.417 43.875 173.969 44.1875 173.469 44.4375C172.99 44.6667 172.583 44.9479 172.25 45.2812C172.208 45.2812 172.135 45.3333 172.031 45.4375C171.927 45.5417 171.812 45.6562 171.688 45.7812C171.583 45.9062 171.479 46.0312 171.375 46.1562C171.271 46.2604 171.208 46.3229 171.188 46.3438C171.125 46.3646 171 46.4062 170.812 46.4688C170.646 46.5312 170.458 46.6042 170.25 46.6875C170.042 46.75 169.833 46.8125 169.625 46.875C169.438 46.9375 169.292 46.9792 169.188 47C169.146 47 169 47.0104 168.75 47.0312C168.521 47.0729 168.25 47.1146 167.938 47.1562C167.646 47.2188 167.344 47.2708 167.031 47.3125C166.74 47.375 166.521 47.4167 166.375 47.4375H166.156H165.938C165.792 47.4375 165.531 47.4271 165.156 47.4062C164.781 47.3854 164.385 47.3542 163.969 47.3125C163.552 47.2917 163.156 47.2708 162.781 47.25C162.427 47.2292 162.177 47.2188 162.031 47.2188ZM182.938 33.4375V31.75C182.958 31.7083 183.021 31.6042 183.125 31.4375C183.25 31.2708 183.312 31.1458 183.312 31.0625C183.354 30.9792 183.427 30.7812 183.531 30.4688C183.656 30.1354 183.771 29.7917 183.875 29.4375C184 29.0625 184.115 28.7188 184.219 28.4062C184.323 28.0938 184.375 27.8958 184.375 27.8125C184.708 27 185.083 26.2604 185.5 25.5938C185.917 24.9062 186.427 24.2708 187.031 23.6875C187.177 23.5625 187.365 23.3958 187.594 23.1875C187.844 22.9583 188.094 22.7292 188.344 22.5C188.594 22.25 188.812 22.0417 189 21.875C189.208 21.6875 189.344 21.5729 189.406 21.5312C189.656 21.3646 189.917 21.2604 190.188 21.2188C190.479 21.1562 190.75 21.0312 191 20.8438C191 20.8229 191.052 20.7812 191.156 20.7188C191.26 20.6354 191.365 20.5521 191.469 20.4688C191.594 20.3646 191.708 20.2708 191.812 20.1875C191.938 20.0833 192.021 20.0104 192.062 19.9688C192.104 19.9479 192.156 19.9271 192.219 19.9062C192.323 19.8646 192.396 19.8125 192.438 19.75C192.562 19.7083 192.708 19.6562 192.875 19.5938C193.062 19.5312 193.229 19.4688 193.375 19.4062C193.542 19.3438 193.688 19.2917 193.812 19.25C193.938 19.1875 194 19.1562 194 19.1562C195.438 19.1771 196.552 19.1979 197.344 19.2188C198.135 19.2188 198.719 19.2292 199.094 19.25C199.469 19.2708 199.698 19.2917 199.781 19.3125C199.865 19.3125 199.927 19.3125 199.969 19.3125C200.156 19.375 200.344 19.4167 200.531 19.4375C200.719 19.4583 200.927 19.5104 201.156 19.5938C201.177 19.5938 201.229 19.6146 201.312 19.6562C201.396 19.6979 201.479 19.7396 201.562 19.7812C201.667 19.8229 201.75 19.8646 201.812 19.9062C201.896 19.9479 201.948 19.9688 201.969 19.9688C202.156 20.0521 202.385 20.125 202.656 20.1875C202.927 20.2292 203.146 20.3229 203.312 20.4688C203.708 20.8229 204.104 21.1771 204.5 21.5312C204.896 21.8854 205.24 22.2708 205.531 22.6875C205.844 23.0833 206.094 23.5208 206.281 24C206.469 24.4792 206.562 25.0104 206.562 25.5938C206.562 25.9271 206.448 26.2708 206.219 26.625C206.01 26.9583 205.74 27.2708 205.406 27.5625C205.073 27.8333 204.708 28.0625 204.312 28.25C203.938 28.4167 203.583 28.5 203.25 28.5H202.875C202.833 28.4792 202.729 28.4271 202.562 28.3438C202.396 28.2396 202.208 28.1354 202 28.0312C201.792 27.9271 201.583 27.8229 201.375 27.7188C201.167 27.5938 201 27.5 200.875 27.4375C200.771 27.3542 200.688 27.2292 200.625 27.0625C200.562 26.8958 200.51 26.7292 200.469 26.5625C200.427 26.3958 200.396 26.2292 200.375 26.0625C200.354 25.8958 200.323 25.7604 200.281 25.6562C200.156 25.2396 200 24.8229 199.812 24.4062C199.625 23.9688 199.396 23.5833 199.125 23.25C198.854 22.9167 198.521 22.6458 198.125 22.4375C197.75 22.2292 197.302 22.125 196.781 22.125C196.198 22.125 195.615 22.2604 195.031 22.5312C194.448 22.7812 193.948 23.0938 193.531 23.4688C193.469 23.5312 193.323 23.6667 193.094 23.875C192.865 24.0625 192.615 24.2708 192.344 24.5C192.073 24.7083 191.823 24.9062 191.594 25.0938C191.365 25.2812 191.219 25.3958 191.156 25.4375C190.865 25.6667 190.677 25.9688 190.594 26.3438C190.531 26.6979 190.427 27.0625 190.281 27.4375C190.281 27.4375 190.26 27.4792 190.219 27.5625C190.177 27.625 190.135 27.7083 190.094 27.8125C190.052 27.8958 190.01 27.9896 189.969 28.0938C189.927 28.1771 189.906 28.2292 189.906 28.25C189.573 29 189.365 29.7812 189.281 30.5938C189.219 31.3854 189.188 32.1875 189.188 33V33.6875V35C189.333 35.2292 189.448 35.4792 189.531 35.75C189.615 36.0208 189.688 36.3021 189.75 36.5938C189.833 36.8854 189.906 37.1771 189.969 37.4688C190.052 37.7396 190.156 38 190.281 38.25C190.531 38.7292 190.792 39.1354 191.062 39.4688C191.354 39.7812 191.646 40.0729 191.938 40.3438C192.25 40.6146 192.573 40.875 192.906 41.125C193.24 41.3542 193.604 41.6146 194 41.9062L194.062 42.0312C194.083 42.0938 194.135 42.125 194.219 42.125C194.26 42.1875 194.333 42.2292 194.438 42.25C194.5 42.2917 194.552 42.3229 194.594 42.3438H200.062C200.167 42.3229 200.26 42.2917 200.344 42.25C200.427 42.2292 200.5 42.2083 200.562 42.1875C200.625 42.1667 200.677 42.1458 200.719 42.125C201.135 41.9583 201.531 41.8438 201.906 41.7812C202.302 41.7188 202.677 41.625 203.031 41.5C203.219 41.4375 203.427 41.3542 203.656 41.25C203.885 41.125 204.115 41 204.344 40.875C204.573 40.75 204.802 40.6458 205.031 40.5625C205.26 40.4583 205.479 40.4062 205.688 40.4062C205.729 40.4062 205.771 40.4271 205.812 40.4688C205.875 40.4896 205.906 40.5208 205.906 40.5625C205.906 40.625 205.875 40.7396 205.812 40.9062C205.771 41.0521 205.729 41.1771 205.688 41.2812C205.417 42.0104 205.031 42.6875 204.531 43.3125C204.052 43.9375 203.49 44.5 202.844 45C202.219 45.4792 201.542 45.8854 200.812 46.2188C200.083 46.5521 199.333 46.7812 198.562 46.9062C198.521 46.9062 198.417 46.9167 198.25 46.9375C198.083 46.9583 197.896 46.9792 197.688 47C197.5 47.0208 197.312 47.0417 197.125 47.0625C196.958 47.1042 196.844 47.1354 196.781 47.1562C196.74 47.1562 196.635 47.2188 196.469 47.3438C196.302 47.4688 196.208 47.5312 196.188 47.5312H195.312C194.667 47.5312 193.979 47.4479 193.25 47.2812C192.542 47.1146 191.833 46.8854 191.125 46.5938C190.438 46.3021 189.771 45.9688 189.125 45.5938C188.5 45.1979 187.948 44.7708 187.469 44.3125C187.448 44.2917 187.375 44.2083 187.25 44.0625C187.125 43.8958 186.979 43.7188 186.812 43.5312C186.667 43.3229 186.51 43.1146 186.344 42.9062C186.198 42.6771 186.073 42.4896 185.969 42.3438C184.906 40.9688 184.135 39.5729 183.656 38.1562C183.177 36.7396 182.938 35.1667 182.938 33.4375ZM216.594 39.0625C216.594 39.5 216.74 39.8438 217.031 40.0938C217.344 40.3229 217.708 40.5 218.125 40.625C218.542 40.75 218.979 40.8438 219.438 40.9062C219.896 40.9479 220.271 41.0104 220.562 41.0938H220.594C221.01 41.0938 221.448 40.9688 221.906 40.7188C222.365 40.4479 222.688 40.1667 222.875 39.875C222.938 39.7708 223.021 39.625 223.125 39.4375C223.229 39.25 223.323 39.0625 223.406 38.875C223.51 38.6875 223.594 38.5208 223.656 38.375C223.74 38.2292 223.781 38.1354 223.781 38.0938V33.9688L223.594 33.5312C223.552 33.5312 223.458 33.5312 223.312 33.5312C223.188 33.5104 223.094 33.5 223.031 33.5C222.469 33.5 221.948 33.6458 221.469 33.9375C220.99 34.2083 220.521 34.5104 220.062 34.8438C219.958 34.9062 219.812 35.0104 219.625 35.1562C219.438 35.2812 219.25 35.4167 219.062 35.5625C218.896 35.7083 218.74 35.8438 218.594 35.9688C218.469 36.0729 218.396 36.125 218.375 36.125C218.354 36.1458 218.302 36.2083 218.219 36.3125C218.135 36.4167 218.042 36.5417 217.938 36.6875C217.854 36.8125 217.771 36.9479 217.688 37.0938C217.604 37.2396 217.531 37.3542 217.469 37.4375C217.427 37.4792 217.385 37.5521 217.344 37.6562C217.323 37.7604 217.312 37.8333 217.312 37.875C217.271 37.8958 217.208 37.9479 217.125 38.0312C217.062 38.1146 216.99 38.2083 216.906 38.3125C216.844 38.3958 216.781 38.4896 216.719 38.5938C216.656 38.6771 216.615 38.7396 216.594 38.7812V39.0625ZM223.25 43.6875C223.062 43.6875 222.885 43.7396 222.719 43.8438C222.552 43.9479 222.385 44.0729 222.219 44.2188C222.073 44.3646 221.927 44.5208 221.781 44.6875C221.656 44.8333 221.531 44.9583 221.406 45.0625C221.385 45.0625 221.323 45.0833 221.219 45.125C221.115 45.1667 221.021 45.2188 220.938 45.2812C220.562 45.4271 220.198 45.6042 219.844 45.8125C219.49 46 219.135 46.1875 218.781 46.375C218.427 46.5417 218.052 46.6875 217.656 46.8125C217.281 46.9375 216.896 47 216.5 47H215.531C215.49 46.9583 215.375 46.9167 215.188 46.875C215.021 46.8125 214.917 46.7604 214.875 46.7188C214.854 46.7188 214.792 46.7188 214.688 46.7188C214.583 46.6979 214.469 46.6771 214.344 46.6562C214.219 46.6354 214.094 46.6146 213.969 46.5938C213.865 46.5729 213.802 46.5417 213.781 46.5C213.677 46.4792 213.51 46.4479 213.281 46.4062C213.052 46.3646 212.917 46.3438 212.875 46.3438C212.625 46.1771 212.354 45.8958 212.062 45.5C211.771 45.1042 211.5 44.6667 211.25 44.1875C211 43.7083 210.781 43.2292 210.594 42.75C210.427 42.2708 210.344 41.8646 210.344 41.5312C210.344 41.0521 210.427 40.5833 210.594 40.125C210.76 39.6667 210.885 39.2188 210.969 38.7812C211.594 37.8438 212.208 37.0312 212.812 36.3438C213.417 35.6562 214.198 35.0312 215.156 34.4688C215.156 34.4479 215.208 34.4167 215.312 34.375C215.417 34.3125 215.521 34.2604 215.625 34.2188C215.75 34.1562 215.865 34.1042 215.969 34.0625C216.094 34.0208 216.177 33.9896 216.219 33.9688C216.427 33.8646 216.646 33.7292 216.875 33.5625C217.104 33.375 217.333 33.1979 217.562 33.0312C217.792 32.8438 218.01 32.6875 218.219 32.5625C218.427 32.4167 218.615 32.3229 218.781 32.2812C218.823 32.2604 218.927 32.2396 219.094 32.2188C219.281 32.1979 219.469 32.1771 219.656 32.1562C219.865 32.1354 220.052 32.1146 220.219 32.0938C220.385 32.0729 220.5 32.0521 220.562 32.0312C220.583 32.0312 220.677 31.9583 220.844 31.8125C221.01 31.6667 221.115 31.5938 221.156 31.5938C221.219 31.5729 221.375 31.5 221.625 31.375C221.896 31.25 222.177 31.1146 222.469 30.9688C222.76 30.8229 223.031 30.6875 223.281 30.5625C223.552 30.4167 223.719 30.3229 223.781 30.2812C223.99 30.1562 224.156 29.9792 224.281 29.75C224.406 29.5208 224.49 29.2812 224.531 29.0312C224.594 28.7812 224.625 28.5312 224.625 28.2812C224.646 28.0312 224.656 27.8021 224.656 27.5938C224.656 26.5938 224.521 25.6875 224.25 24.875C224 24.0625 223.542 23.2604 222.875 22.4688C222.833 22.3646 222.719 22.2396 222.531 22.0938C222.365 21.9479 222.26 21.875 222.219 21.875H220.344C220.094 22.1042 219.802 22.3125 219.469 22.5C219.135 22.6667 218.906 22.8854 218.781 23.1562C218.531 23.6146 218.271 24.1042 218 24.625C217.75 25.1458 217.573 25.6667 217.469 26.1875C217.406 26.25 217.281 26.3542 217.094 26.5C216.906 26.625 216.708 26.75 216.5 26.875C216.312 27 216.125 27.125 215.938 27.25C215.75 27.3542 215.615 27.4271 215.531 27.4688C215.51 27.4688 215.448 27.4792 215.344 27.5C215.24 27.5 215.115 27.5 214.969 27.5C214.844 27.5 214.708 27.5104 214.562 27.5312C214.417 27.5312 214.302 27.5312 214.219 27.5312C214.177 27.5312 214.094 27.5312 213.969 27.5312C213.844 27.5104 213.708 27.5 213.562 27.5C213.417 27.5 213.281 27.5 213.156 27.5C213.031 27.4792 212.938 27.4688 212.875 27.4688C212.667 27.3438 212.448 27.1979 212.219 27.0312C211.99 26.8438 211.781 26.6562 211.594 26.4688C211.406 26.2604 211.25 26.0417 211.125 25.8125C211 25.5625 210.938 25.2917 210.938 25C210.938 24.6875 210.969 24.4167 211.031 24.1875C211.115 23.9583 211.208 23.7396 211.312 23.5312C211.438 23.3229 211.583 23.125 211.75 22.9375C211.917 22.7292 212.094 22.5104 212.281 22.2812C212.448 22.0521 212.573 21.8646 212.656 21.7188C212.76 21.5521 212.927 21.3854 213.156 21.2188C213.281 21.1146 213.396 21.0521 213.5 21.0312C213.604 20.9896 213.708 20.9688 213.812 20.9688C213.938 20.9479 214.062 20.9271 214.188 20.9062C214.312 20.8854 214.469 20.8438 214.656 20.7812C214.74 20.7604 214.927 20.6771 215.219 20.5312C215.51 20.3646 215.823 20.1979 216.156 20.0312C216.51 19.8438 216.833 19.6771 217.125 19.5312C217.417 19.3646 217.604 19.2604 217.688 19.2188C217.729 19.1979 217.812 19.1875 217.938 19.1875C218.062 19.1667 218.188 19.1458 218.312 19.125C218.458 19.1042 218.594 19.0938 218.719 19.0938C218.844 19.0729 218.927 19.0625 218.969 19.0625C219.552 18.9167 220.104 18.7292 220.625 18.5C221.167 18.25 221.74 18.125 222.344 18.125H222.719C223.594 18.2708 224.521 18.4688 225.5 18.7188C226.479 18.9479 227.354 19.3438 228.125 19.9062C228.188 19.9688 228.281 20.0625 228.406 20.1875C228.552 20.2917 228.688 20.4167 228.812 20.5625C228.958 20.7083 229.083 20.8438 229.188 20.9688C229.292 21.0729 229.354 21.1562 229.375 21.2188C229.396 21.2396 229.417 21.3125 229.438 21.4375C229.479 21.5625 229.51 21.6979 229.531 21.8438C229.552 21.9688 229.562 22.1042 229.562 22.25C229.583 22.375 229.594 22.4479 229.594 22.4688C229.594 22.5312 229.625 22.6562 229.688 22.8438C229.771 23.0312 229.854 23.2396 229.938 23.4688C230.021 23.6979 230.094 23.9062 230.156 24.0938C230.24 24.2812 230.281 24.4062 230.281 24.4688C230.281 24.4688 230.281 24.6458 230.281 25C230.302 25.3542 230.312 25.7708 230.312 26.25C230.333 26.7292 230.354 27.2188 230.375 27.7188C230.396 28.2188 230.417 28.625 230.438 28.9375V29.0938V29.2188C230.396 29.2812 230.365 29.3438 230.344 29.4062C230.302 29.5312 230.281 29.6146 230.281 29.6562C230.24 29.6979 230.188 29.8125 230.125 30C230.083 30.1667 230.062 30.2604 230.062 30.2812C230.042 30.3438 230.021 30.5417 230 30.875C229.979 31.1875 229.958 31.5312 229.938 31.9062C229.917 32.2604 229.896 32.6042 229.875 32.9375C229.854 33.25 229.844 33.4479 229.844 33.5312C229.844 33.5938 229.802 33.7083 229.719 33.875C229.656 34.0417 229.615 34.1458 229.594 34.1875C229.531 34.5625 229.49 34.8958 229.469 35.1875C229.448 35.4583 229.427 35.7292 229.406 36C229.385 36.2708 229.375 36.5417 229.375 36.8125C229.375 37.0833 229.375 37.3958 229.375 37.75V39.375C229.417 39.4792 229.49 39.6667 229.594 39.9375C229.719 40.2083 229.802 40.3854 229.844 40.4688C229.99 40.8229 230.219 41.0833 230.531 41.25C230.865 41.3958 231.229 41.5104 231.625 41.5938C232.042 41.6562 232.458 41.7083 232.875 41.75C233.292 41.7917 233.677 41.8646 234.031 41.9688C234.385 42.0521 234.677 42.2083 234.906 42.4375C235.135 42.6667 235.25 43 235.25 43.4375C235.25 43.7708 235.083 44.1667 234.75 44.625C234.438 45.0833 234.052 45.5208 233.594 45.9375C233.135 46.3542 232.656 46.7083 232.156 47C231.656 47.2917 231.229 47.4375 230.875 47.4375H230.281C230.24 47.4375 230.115 47.3958 229.906 47.3125C229.719 47.25 229.615 47.2188 229.594 47.2188C229.531 47.1979 229.396 47.1771 229.188 47.1562C228.979 47.1354 228.75 47.1146 228.5 47.0938C228.25 47.0938 228.021 47.0833 227.812 47.0625C227.604 47.0417 227.469 47.0208 227.406 47C227.073 46.875 226.719 46.6354 226.344 46.2812C225.969 45.9062 225.594 45.5312 225.219 45.1562C224.865 44.7812 224.51 44.4479 224.156 44.1562C223.823 43.8438 223.521 43.6875 223.25 43.6875ZM245.125 32.6875V37.5938C245.125 37.7396 245.156 37.9688 245.219 38.2812C245.302 38.5938 245.396 38.8125 245.5 38.9375C245.604 39.0625 245.781 39.2812 246.031 39.5938C246.281 39.8854 246.542 40.2083 246.812 40.5625C247.104 40.8958 247.375 41.2188 247.625 41.5312C247.875 41.8438 248.052 42.0625 248.156 42.1875C248.448 42.5417 248.75 42.8125 249.062 43C249.396 43.1875 249.792 43.2812 250.25 43.2812H250.969C251.01 43.2812 251.115 43.25 251.281 43.1875C251.448 43.125 251.552 43.0938 251.594 43.0938C251.635 43.0729 251.75 43.0521 251.938 43.0312C252.146 43.0104 252.354 42.9896 252.562 42.9688C252.792 42.9479 253 42.9375 253.188 42.9375C253.375 42.9167 253.5 42.9062 253.562 42.9062C253.75 42.8021 253.99 42.6771 254.281 42.5312C254.573 42.3646 254.76 42.1979 254.844 42.0312C254.865 41.9688 254.927 41.8333 255.031 41.625C255.156 41.4167 255.281 41.1875 255.406 40.9375C255.531 40.6875 255.646 40.4583 255.75 40.25C255.854 40.0417 255.927 39.9167 255.969 39.875C256.26 39.2708 256.542 38.6875 256.812 38.125C257.083 37.5625 257.24 36.9688 257.281 36.3438V33.8125V31.3125C257.115 31.0625 257 30.8333 256.938 30.625C256.875 30.4167 256.823 30.2083 256.781 30C256.76 29.7917 256.74 29.5729 256.719 29.3438C256.698 29.1146 256.656 28.8542 256.594 28.5625C256.531 28.2917 256.417 27.9479 256.25 27.5312C256.083 27.0938 255.885 26.6562 255.656 26.2188C255.427 25.7812 255.177 25.375 254.906 25C254.656 24.625 254.417 24.3542 254.188 24.1875C254.167 24.1875 254.062 24.1562 253.875 24.0938C253.688 24.0104 253.583 23.9688 253.562 23.9688C253.521 23.9688 253.417 23.8958 253.25 23.75C253.083 23.6042 252.99 23.5312 252.969 23.5312C252.865 23.4896 252.75 23.4375 252.625 23.375C252.5 23.3125 252.385 23.2396 252.281 23.1562C252.156 23.0729 252.021 22.9792 251.875 22.875H248.781C248.76 22.875 248.698 22.9062 248.594 22.9688C248.49 23.0104 248.417 23.0521 248.375 23.0938C248.312 23.1354 248.156 23.25 247.906 23.4375C247.677 23.6042 247.521 23.7083 247.438 23.75C247.25 23.8958 247.031 23.9896 246.781 24.0312C246.531 24.0521 246.333 24.1562 246.188 24.3438C246.146 24.4062 246.083 24.5 246 24.625C245.917 24.75 245.823 24.8854 245.719 25.0312C245.635 25.1771 245.552 25.3125 245.469 25.4375C245.385 25.5625 245.323 25.6458 245.281 25.6875C245.281 25.7917 245.271 25.9896 245.25 26.2812C245.229 26.5729 245.208 26.8854 245.188 27.2188C245.188 27.5521 245.177 27.8646 245.156 28.1562C245.135 28.4479 245.125 28.6562 245.125 28.7812V29.2188C245.125 29.5729 245.146 29.9062 245.188 30.2188C245.25 30.5312 245.281 30.8854 245.281 31.2812C245.281 31.5521 245.271 31.7812 245.25 31.9688C245.25 32.1562 245.208 32.3958 245.125 32.6875ZM240.531 46.125L239.719 45.2812C239.677 45.2812 239.646 45.1979 239.625 45.0312C239.604 44.8438 239.583 44.6354 239.562 44.4062C239.542 44.1771 239.521 43.9375 239.5 43.6875C239.479 43.4375 239.458 43.2396 239.438 43.0938V42.8438C239.438 42.5104 239.51 42.2188 239.656 41.9688C239.802 41.7188 239.875 41.4271 239.875 41.0938C239.875 40.9271 239.854 40.7917 239.812 40.6875C239.792 40.5625 239.76 40.4167 239.719 40.25V35.9062C239.615 35.6771 239.542 35.4271 239.5 35.1562C239.458 34.8854 239.438 34.6146 239.438 34.3438V33.5312C239.438 33.0312 239.469 32.5417 239.531 32.0625C239.615 31.5625 239.688 31.0625 239.75 30.5625C239.833 30.0625 239.906 29.5625 239.969 29.0625C240.052 28.5625 240.094 28.0521 240.094 27.5312V27.4375C240.094 27.375 240.052 27.2604 239.969 27.0938C239.906 26.9271 239.875 26.8229 239.875 26.7812C239.875 26.7604 239.865 26.7083 239.844 26.625C239.844 26.5208 239.844 26.4062 239.844 26.2812C239.844 26.1354 239.833 26 239.812 25.875C239.812 25.7292 239.812 25.6146 239.812 25.5312V25.1562C239.812 24.8646 239.833 24.5833 239.875 24.3125C239.938 24.0208 240.083 23.7604 240.312 23.5312C240.312 23.3646 240.312 23.0625 240.312 22.625C240.333 22.1875 240.344 21.7188 240.344 21.2188C240.344 20.7188 240.344 20.25 240.344 19.8125C240.365 19.375 240.375 19.0625 240.375 18.875V15.0625C240.375 13.7292 240.333 12.3958 240.25 11.0625C240.188 9.70833 240.01 8.4375 239.719 7.25C239.594 6.83333 239.323 6.53125 238.906 6.34375C238.51 6.13542 238.094 5.95833 237.656 5.8125C237.219 5.64583 236.823 5.45833 236.469 5.25C236.135 5.04167 235.969 4.70833 235.969 4.25C235.969 4.04167 236.01 3.86458 236.094 3.71875C236.198 3.57292 236.312 3.45833 236.438 3.375C236.583 3.27083 236.74 3.1875 236.906 3.125C237.094 3.04167 237.271 2.95833 237.438 2.875C237.5 2.875 237.656 2.83333 237.906 2.75C238.177 2.66667 238.458 2.58333 238.75 2.5C239.062 2.39583 239.344 2.30208 239.594 2.21875C239.865 2.13542 240.031 2.08333 240.094 2.0625C240.448 1.91667 240.76 1.78125 241.031 1.65625C241.323 1.51042 241.604 1.38542 241.875 1.28125C242.146 1.17708 242.427 1.09375 242.719 1.03125C243.031 0.96875 243.396 0.9375 243.812 0.9375C243.854 0.9375 243.896 0.9375 243.938 0.9375C244 0.9375 244.031 0.958333 244.031 1C244.302 1.14583 244.531 1.35417 244.719 1.625C244.927 1.875 245.094 2.16667 245.219 2.5C245.344 2.8125 245.427 3.13542 245.469 3.46875C245.531 3.80208 245.562 4.125 245.562 4.4375C245.562 4.5 245.552 4.625 245.531 4.8125C245.51 4.97917 245.5 5.07292 245.5 5.09375C245.5 5.13542 245.49 5.23958 245.469 5.40625C245.448 5.57292 245.417 5.76042 245.375 5.96875C245.354 6.15625 245.333 6.33333 245.312 6.5C245.292 6.66667 245.281 6.76042 245.281 6.78125V10.9375C245.281 11 245.25 11.1562 245.188 11.4062C245.146 11.6354 245.125 11.7708 245.125 11.8125V13.5312V15.5312C245.125 15.6562 245.125 15.8646 245.125 16.1562C245.146 16.4479 245.156 16.7604 245.156 17.0938C245.177 17.4062 245.198 17.7083 245.219 18C245.24 18.2708 245.26 18.4583 245.281 18.5625C245.302 18.625 245.333 18.7604 245.375 18.9688C245.417 19.1562 245.458 19.3646 245.5 19.5938C245.562 19.8021 245.615 20.0208 245.656 20.25C245.698 20.4583 245.74 20.6146 245.781 20.7188C245.802 20.8854 245.865 21.0417 245.969 21.1875C246.073 21.3125 246.208 21.375 246.375 21.375C246.708 21.375 247.01 21.2812 247.281 21.0938C247.573 20.8854 247.865 20.7604 248.156 20.7188H249C249.583 20.6146 250.167 20.4792 250.75 20.3125C251.333 20.125 251.927 20.0312 252.531 20.0312C253.073 20.0312 253.594 20.0625 254.094 20.125C254.594 20.1667 255.135 20.2083 255.719 20.25C255.802 20.3958 255.927 20.5312 256.094 20.6562C256.281 20.7604 256.479 20.8646 256.688 20.9688C256.896 21.0521 257.104 21.1458 257.312 21.25C257.542 21.3542 257.729 21.4688 257.875 21.5938C257.938 21.6354 258.042 21.7188 258.188 21.8438C258.354 21.9479 258.521 22.0729 258.688 22.2188C258.854 22.3646 259 22.5 259.125 22.625C259.271 22.75 259.375 22.8333 259.438 22.875C259.458 22.8958 259.521 22.9583 259.625 23.0625C259.729 23.1667 259.844 23.2917 259.969 23.4375C260.094 23.5625 260.208 23.6771 260.312 23.7812C260.417 23.8854 260.49 23.9479 260.531 23.9688C260.573 24.0104 260.719 24.0729 260.969 24.1562C261.219 24.2396 261.354 24.3021 261.375 24.3438C261.396 24.3854 261.427 24.4896 261.469 24.6562C261.51 24.8021 261.552 24.9688 261.594 25.1562C261.635 25.3229 261.677 25.4896 261.719 25.6562C261.76 25.8021 261.781 25.8854 261.781 25.9062C261.969 26.4271 262.156 26.9062 262.344 27.3438C262.531 27.7604 262.698 28.1875 262.844 28.625C262.99 29.0625 263.104 29.5104 263.188 29.9688C263.292 30.4271 263.344 30.9479 263.344 31.5312C263.344 32.9062 263.25 34.25 263.062 35.5625C262.875 36.875 262.552 38.125 262.094 39.3125C261.635 40.4792 261.01 41.5729 260.219 42.5938C259.448 43.6146 258.469 44.5104 257.281 45.2812C257.219 45.2812 257.135 45.3125 257.031 45.375C256.927 45.4375 256.812 45.5104 256.688 45.5938C256.583 45.6562 256.479 45.7188 256.375 45.7812C256.271 45.8438 256.208 45.8854 256.188 45.9062C255.875 46.0729 255.531 46.1667 255.156 46.1875C254.802 46.2083 254.479 46.3125 254.188 46.5C254.062 46.5417 253.833 46.5833 253.5 46.625C253.167 46.6667 252.812 46.7188 252.438 46.7812C252.062 46.8229 251.708 46.8646 251.375 46.9062C251.042 46.9479 250.812 46.9792 250.688 47C250.354 47.0417 249.969 47.125 249.531 47.25C249.115 47.375 248.729 47.4375 248.375 47.4375C248.125 47.4375 247.875 47.3854 247.625 47.2812C247.375 47.1771 247.135 47.0625 246.906 46.9375C246.677 46.8125 246.448 46.6979 246.219 46.5938C245.99 46.4688 245.75 46.3854 245.5 46.3438C245.438 46.3229 245.323 46.3021 245.156 46.2812C245.01 46.2396 244.844 46.2083 244.656 46.1875C244.49 46.1667 244.323 46.1562 244.156 46.1562C243.99 46.1354 243.875 46.125 243.812 46.125C243.688 46.125 243.469 46.125 243.156 46.125C242.844 46.1042 242.51 46.0938 242.156 46.0938C241.802 46.0938 241.469 46.1042 241.156 46.125C240.865 46.125 240.656 46.125 240.531 46.125ZM281.688 61.7188C281.417 61.6562 281.25 61.5312 281.188 61.3438C281.125 61.1562 281.094 60.9479 281.094 60.7188V60.3125C281.094 59.8333 281.104 59.4062 281.125 59.0312C281.167 58.6771 281.281 58.2708 281.469 57.8125C281.49 57.7292 281.552 57.6458 281.656 57.5625C281.76 57.4792 281.875 57.4167 282 57.375C282.146 57.3333 282.271 57.2917 282.375 57.25C282.5 57.2292 282.583 57.2188 282.625 57.2188C283.354 57.0729 284.042 56.9792 284.688 56.9375C285.333 56.9167 285.99 56.9062 286.656 56.9062H288.281C288.448 56.8021 288.594 56.7292 288.719 56.6875C288.865 56.6458 289.01 56.625 289.156 56.625H289.469C289.948 56.625 290.396 56.6771 290.812 56.7812C291.229 56.8854 291.646 56.9375 292.062 56.9375C292.167 56.9375 292.312 56.9375 292.5 56.9375C292.708 56.9375 292.833 56.9271 292.875 56.9062C293.062 56.9062 293.302 56.8854 293.594 56.8438C293.885 56.8229 294.167 56.7917 294.438 56.75C294.729 56.7292 294.979 56.6979 295.188 56.6562C295.417 56.6354 295.552 56.625 295.594 56.625C295.635 56.6042 295.708 56.5417 295.812 56.4375C295.938 56.3542 296.062 56.25 296.188 56.125C296.312 56 296.427 55.8646 296.531 55.7188C296.656 55.5938 296.74 55.5 296.781 55.4375C296.927 55.1667 297.01 54.7604 297.031 54.2188C297.073 53.6979 297.094 53.1979 297.094 52.7188V52.0312C297.094 51.0521 297.062 49.9792 297 48.8125C296.958 47.6667 296.885 46.6667 296.781 45.8125C296.781 45.75 296.75 45.6458 296.688 45.5C296.646 45.3542 296.583 45.1979 296.5 45.0312C296.438 44.8438 296.375 44.6875 296.312 44.5625C296.25 44.4167 296.208 44.3333 296.188 44.3125V43.8125C296.188 43.5625 296.208 43.3646 296.25 43.2188C296.312 43.0729 296.49 42.9271 296.781 42.7812V40.6875C296.781 40.6458 296.792 40.5625 296.812 40.4375C296.854 40.3125 296.896 40.1875 296.938 40.0625C296.979 39.9375 297.01 39.8229 297.031 39.7188C297.073 39.5938 297.094 39.5208 297.094 39.5C297.094 39.4375 297.094 39.3333 297.094 39.1875C297.094 39.0208 297.083 38.8333 297.062 38.625C297.062 38.4167 297.062 38.1979 297.062 37.9688C297.062 37.7396 297.062 37.5208 297.062 37.3125C297.062 37.0833 297.062 36.8958 297.062 36.75C297.062 36.6042 297.073 36.5104 297.094 36.4688C297.094 36.4271 297.115 36.3438 297.156 36.2188C297.219 36.0938 297.281 35.9688 297.344 35.8438C297.427 35.7188 297.5 35.6042 297.562 35.5C297.625 35.375 297.667 35.3021 297.688 35.2812V35.0938V34.9375C297.688 34.9167 297.667 34.8542 297.625 34.75C297.604 34.625 297.573 34.5 297.531 34.375C297.49 34.2292 297.448 34.1042 297.406 34C297.385 33.875 297.375 33.7917 297.375 33.75V32.4688V31.9688C297.375 31.9271 297.354 31.8438 297.312 31.7188C297.292 31.5938 297.26 31.4688 297.219 31.3438C297.198 31.1979 297.167 31.0729 297.125 30.9688C297.104 30.8438 297.094 30.7604 297.094 30.7188V30.4688V30.125C297.094 30.1042 297.104 30.0417 297.125 29.9375C297.167 29.8125 297.198 29.6875 297.219 29.5625C297.26 29.4167 297.292 29.2917 297.312 29.1875C297.354 29.0625 297.375 28.9792 297.375 28.9375V28.7812V28.6875C297.375 28.6042 297.354 28.4271 297.312 28.1562C297.292 27.8854 297.26 27.6042 297.219 27.3125C297.198 27 297.167 26.7083 297.125 26.4375C297.104 26.1667 297.094 25.9896 297.094 25.9062C297.094 25.8646 297.083 25.7083 297.062 25.4375C297.062 25.1667 297.052 24.8646 297.031 24.5312C297.031 24.1771 297.021 23.8229 297 23.4688C297 23.1146 297 22.8333 297 22.625C297 22.5 297 22.2812 297 21.9688C297.021 21.6562 297.031 21.3229 297.031 20.9688C297.052 20.6146 297.062 20.2812 297.062 19.9688C297.083 19.6562 297.094 19.4375 297.094 19.3125C297.135 19.2292 297.188 19.0312 297.25 18.7188C297.333 18.4062 297.375 18.2083 297.375 18.125C297.375 18.0208 297.385 17.8333 297.406 17.5625C297.427 17.2708 297.438 16.9583 297.438 16.625C297.438 16.2917 297.427 15.9792 297.406 15.6875C297.385 15.3958 297.375 15.1979 297.375 15.0938C297.479 15.0104 297.604 14.875 297.75 14.6875C297.896 14.4792 297.969 14.3333 297.969 14.25C297.969 14.1458 297.917 13.9792 297.812 13.75C297.729 13.5 297.688 13.3542 297.688 13.3125C297.583 12.7917 297.531 12.2708 297.531 11.75C297.531 11.2292 297.385 10.7292 297.094 10.25C297.052 10.2292 296.979 10.1667 296.875 10.0625C296.792 9.9375 296.698 9.8125 296.594 9.6875C296.51 9.54167 296.427 9.41667 296.344 9.3125C296.26 9.20833 296.208 9.13542 296.188 9.09375C296.167 9.03125 296.125 8.91667 296.062 8.75C296 8.5625 295.938 8.375 295.875 8.1875C295.812 7.97917 295.75 7.79167 295.688 7.625C295.646 7.45833 295.615 7.35417 295.594 7.3125C295.51 7.1875 295.354 7.05208 295.125 6.90625C294.917 6.76042 294.771 6.66667 294.688 6.625C294.542 6.625 294.281 6.61458 293.906 6.59375C293.531 6.55208 293.135 6.52083 292.719 6.5C292.323 6.45833 291.938 6.42708 291.562 6.40625C291.188 6.36458 290.927 6.34375 290.781 6.34375H290.281H289.812C289.771 6.34375 289.635 6.36458 289.406 6.40625C289.177 6.42708 288.927 6.45833 288.656 6.5C288.385 6.52083 288.125 6.55208 287.875 6.59375C287.646 6.61458 287.51 6.625 287.469 6.625C287.448 6.64583 287.375 6.65625 287.25 6.65625C287.146 6.65625 287.021 6.65625 286.875 6.65625C286.583 6.65625 286.271 6.65625 285.938 6.65625C285.604 6.63542 285.417 6.625 285.375 6.625C285.292 6.66667 285.125 6.72917 284.875 6.8125C284.646 6.89583 284.49 6.9375 284.406 6.9375H283.688H282.875C282.854 6.9375 282.719 6.89583 282.469 6.8125C282.24 6.72917 282.104 6.66667 282.062 6.625C282.021 6.625 281.896 6.63542 281.688 6.65625C281.5 6.65625 281.323 6.65625 281.156 6.65625C280.948 6.65625 280.823 6.64583 280.781 6.625C280.406 6.58333 280.104 6.45833 279.875 6.25C279.646 6.02083 279.469 5.75 279.344 5.4375C279.219 5.125 279.135 4.79167 279.094 4.4375C279.031 4.08333 279 3.76042 279 3.46875V3.3125C279.271 2.95833 279.583 2.6875 279.938 2.5C280.312 2.29167 280.698 2.13542 281.094 2.03125C281.49 1.92708 281.906 1.86458 282.344 1.84375C282.781 1.82292 283.219 1.8125 283.656 1.8125C284.552 1.8125 285.448 1.85417 286.344 1.9375C287.26 2 288.167 2.07292 289.062 2.15625C289.958 2.23958 290.844 2.32292 291.719 2.40625C292.615 2.46875 293.51 2.5 294.406 2.5H296.5C296.521 2.5 296.583 2.47917 296.688 2.4375C296.792 2.39583 296.906 2.35417 297.031 2.3125C297.177 2.27083 297.312 2.22917 297.438 2.1875C297.562 2.14583 297.646 2.125 297.688 2.125C298.104 2.125 298.552 2.1875 299.031 2.3125C299.531 2.41667 299.99 2.58333 300.406 2.8125C300.844 3.04167 301.198 3.34375 301.469 3.71875C301.76 4.07292 301.906 4.5 301.906 5C301.906 6.08333 301.854 7.16667 301.75 8.25C301.646 9.3125 301.594 10.4062 301.594 11.5312C301.594 12.4896 301.677 13.4375 301.844 14.375C302.031 15.3125 302.146 16.2604 302.188 17.2188V18.0625V20.25C302.208 20.3542 302.229 20.5938 302.25 20.9688C302.271 21.3229 302.292 21.7188 302.312 22.1562C302.354 22.5938 302.385 23.0104 302.406 23.4062C302.448 23.7812 302.479 24.0208 302.5 24.125V24.25V24.4688C302.479 24.6771 302.458 24.9896 302.438 25.4062C302.417 25.8229 302.396 26.3021 302.375 26.8438C302.375 27.3646 302.365 27.9167 302.344 28.5C302.323 29.0833 302.302 29.6458 302.281 30.1875C302.26 30.7083 302.24 31.1875 302.219 31.625C302.219 32.0417 302.208 32.3542 302.188 32.5625C302.146 32.625 302.083 32.7708 302 33C301.938 33.2292 301.906 33.3958 301.906 33.5V33.5938V33.75C301.948 33.8125 302.031 33.9583 302.156 34.1875C302.302 34.4167 302.417 34.5833 302.5 34.6875V44.3125C302.458 44.3542 302.396 44.4896 302.312 44.7188C302.229 44.9271 302.188 45.0729 302.188 45.1562C302.188 45.2188 302.198 45.375 302.219 45.625C302.26 45.8542 302.302 46.1042 302.344 46.375C302.385 46.6458 302.417 46.8958 302.438 47.125C302.479 47.375 302.5 47.5312 302.5 47.5938V53C302.5 53.0208 302.51 53.0938 302.531 53.2188C302.573 53.3438 302.604 53.4688 302.625 53.5938C302.667 53.7396 302.698 53.8646 302.719 53.9688C302.76 54.0938 302.781 54.1667 302.781 54.1875C302.802 54.2292 302.812 54.3542 302.812 54.5625C302.833 54.7917 302.844 55.0521 302.844 55.3438C302.844 55.6354 302.844 55.9271 302.844 56.2188C302.844 56.5104 302.844 56.7396 302.844 56.9062C302.844 57.0312 302.844 57.2188 302.844 57.4688C302.844 57.7396 302.844 58.0104 302.844 58.2812C302.844 58.5729 302.833 58.8438 302.812 59.0938C302.812 59.3438 302.802 59.5104 302.781 59.5938C302.49 59.9688 302.188 60.2292 301.875 60.375C301.562 60.5417 301.229 60.6562 300.875 60.7188C300.521 60.7812 300.156 60.8125 299.781 60.8125C299.406 60.8125 299.021 60.8229 298.625 60.8438C298.562 60.8438 298.417 60.8542 298.188 60.875C297.979 60.9167 297.76 60.9479 297.531 60.9688C297.302 61.0104 297.083 61.0417 296.875 61.0625C296.667 61.1042 296.542 61.125 296.5 61.125H295.594H293.094C293.094 61.125 293.052 61.1354 292.969 61.1562C292.885 61.1979 292.792 61.2396 292.688 61.2812C292.604 61.3229 292.521 61.3542 292.438 61.375C292.354 61.4167 292.302 61.4375 292.281 61.4375C292.156 61.4583 291.896 61.4792 291.5 61.5C291.104 61.5417 290.667 61.5729 290.188 61.5938C289.708 61.6354 289.229 61.6667 288.75 61.6875C288.292 61.7083 287.938 61.7188 287.688 61.7188H287.156H285.594C285.552 61.7396 285.417 61.7917 285.188 61.875C284.958 61.9792 284.823 62.0312 284.781 62.0312H284.406H284.188C284.083 62.0104 283.906 61.9792 283.656 61.9375C283.427 61.9167 283.188 61.8854 282.938 61.8438C282.688 61.8229 282.438 61.7917 282.188 61.75C281.958 61.7292 281.792 61.7188 281.688 61.7188Z" fill="#282828"/>
</svg>
